<?xml version="1.0" encoding="UTF-8"?>
<svg xmlns="http://www.w3.org/2000/svg" version="1.1" viewBox="0 0 800 750">
  <g id="Svart_bakgrund" data-name="Svart bakgrund">
    <rect width="800" height="750" fill="#101010" stroke-width="0"/>
  </g>
  <g id="Layer_1" data-name="Layer 1">
    <g>
      <path d="M318,141.3h.3v22.4c50-18,113.9-18,164,0v-22.3h.3c10.2-4,16.3-13.2,18.5-23.8,5.5-26.3-12.6-53-38.3-38.8-1.9-4.3-4.3-8.2-7.3-11.3-7.6-8-23.4-10.8-31.1-1.5-2.4,2.9-4.6,4.3-7.1,4.4-3.3-6.3-10.6-9.6-13.2-16.3-2.4-6.2,2.5-13,8.2-9.4-2.3,1.1-3.9,3.4-3.9,6.1s3.2,6.8,7,6.8,7-3,7-6.8c0-7.5-7.6-13.6-15.3-13.3,8.4-11-2.3-16.4-6.9-27.4-4.6,11-15.3,16.4-6.9,27.4-7.7-.3-15.3,5.9-15.3,13.3s3.2,6.8,7,6.8,7-3,7-6.8-1.6-5-3.9-6.1c5.7-3.5,10.6,3.2,8.2,9.4-2.6,6.7-9.9,10.1-13.2,16.3-2.5-.1-4.7-1.5-7.1-4.4-7.7-9.3-23.5-6.5-31.1,1.5-3,3.1-5.4,7-7.3,11.3-25.7-14.2-43.8,12.5-38.3,38.8,2.2,10.5,8.3,19.8,18.5,23.7ZM417.7,43.2c4.2,5,3.3,13.4-5.3,12,0,0,10-.4,5.3-12ZM388.4,46.8s2.6,2.4,1.6,6c-1,3.6-7.9,4.7-9.9-.3,1.4,1.6,5.7,2.4,7.8.5,2.1-2,.6-6.2.6-6.2ZM344.4,149.2l-17.3-1.2,15.4-7.7,17.3,1.2-15.4,7.7ZM372,144.9c-2.4,0-4.3-1.9-4.3-4.3s1.9-4.3,4.3-4.3,4.3,1.9,4.3,4.3-1.9,4.3-4.3,4.3ZM428.4,144.9c-2.4,0-4.3-1.9-4.3-4.3s1.9-4.3,4.3-4.3,4.3,1.9,4.3,4.3-1.9,4.3-4.3,4.3ZM456,149.2l-15.4-7.7,17.3-1.2,15.4,7.7-17.3,1.2ZM498.9,117.9s-1.2-43.6-32.2-38c23.2-9,36.2,20,32.2,38ZM486.3,96.5c5.3,10.9,4.4,27.7-4.2,35.1-4.4,3.8-9.7,4.6-13.3,2.6,3.8-.9,6.7-3.8,6.7-8.1s-3.9-8.3-8.6-8.3c-8.5,0-10.8,9.9-7.7,16.2.1.3.3.6.5.9-5.7-1.3-11.6-2.3-17.5-3.2,5-1.4,9.6-3.5,12.4-5.9,10.2-8.6,13.3-22,11.7-34.4,9-5.5,16.5-2.3,20.1,5ZM447.6,65.5c11.9,5.8,16.5,24.8,15.7,37.5-.6,10.6-7.4,18.1-9.6,20.3-.4.5-.7.7-.7.7,0,0,.3-.2.7-.7,2.6-2.6,11.2-13.3,5.6-34.6-6.5-25-20.3-26.4-33.1-19.8,0,0,9.6-9.2,21.5-3.4ZM449.4,73.1s7.2,10.1,8.2,21.2c1.1,11.1-1.9,19.4-1.9,19.4,0,0,2.7-21.9-6.3-40.5ZM418.7,83.9c4.7-2.9,8.7-6.4,15.7-6.6,5.3-.1,11.7,4.2,14.4,12.2,3.4,9.8,2.1,23.8-5.1,31.3-5.7,6-15.8,9.2-19,5.5,4-.9,7-4.1,7-8.1s-4-8.3-9-8.3c-8.9,0-11.3,9.9-8.1,16.2.6,1.1,1.3,2.1,2.2,2.9-2.5-.1-5-.3-7.5-.3,4.2-13.8,8.4-30.2,9.3-44.9ZM410.8,109.5c1.7-12.1,6.6-37.6-5.5-45.2,17.2,3.7,8,35.9,5.5,45.2ZM398.9,33.7s-3.4-4.5-2.1-8.1c1.3-3.6,3.2-5.5,3.2-5.5-3.1,7.3-1.1,13.6-1.1,13.6ZM392.4,28.2c-.5-4.5,5.7-9.1,7.4-12.9,0,0-.4,2.1-4,7.4-3.5,5.3,2.1,14.1,2.1,14.1,0,0-5.1-4.1-5.5-8.6ZM400.2,67.2c3.9,0,7.1,3.2,7.1,7.1s-3.2,7.1-7.1,7.1c-3.9,0-7.1-3.2-7.1-7.1s3.2-7.1,7.1-7.1ZM400.2,101.8c-3.3,0-6.1-2.7-6.1-6.1s2.7-6.1,6.1-6.1c3.3,0,6.1,2.7,6.1,6.1s-2.7,6.1-6.1,6.1ZM405.4,115.4c0,2.9-2.3,5.2-5.2,5.2-2.9,0-5.2-2.3-5.2-5.2s2.3-5.2,5.2-5.2c2.9,0,5.2,2.3,5.2,5.2ZM400.2,135.3l16.7,4.5-16.7,4.5h0s-16.7-4.5-16.7-4.5l16.7-4.5ZM381.7,83.9c.8,14.7,5,31.1,9.3,44.9-2.5,0-5,.2-7.5.3.9-.8,1.6-1.8,2.2-2.9,3.3-6.3.9-16.2-8.1-16.2s-9,3.7-9,8.3,3,7.2,7,8.1c-3.2,3.7-13.3.4-19-5.5-7.2-7.6-8.5-21.5-5.1-31.3,2.8-8,9.1-12.3,14.4-12.2,7,.2,11.1,3.7,15.7,6.6ZM368.7,74.5c-22.5-2.6-25.3,26.1-19.6,42.2-9.9-16-4.1-49.2,19.6-42.2ZM357.3,70.2s-7.3,2.3-11.7,10.7c-4.3,8.4-4.4,16-4.4,16,0,0-2.4-25,16.1-26.7ZM345.9,125.9c2.8,2.4,7.3,4.5,12.4,5.9-5.9.9-11.7,1.9-17.5,3.2.2-.3.3-.6.5-.9,3.1-6.3.8-16.2-7.7-16.2s-8.6,4-8.6,8.3,2.8,7.2,6.7,8.1c-3.6,2-8.8,1.2-13.3-2.6-8.7-7.4-9.5-24.2-4.2-35.1,3.6-7.4,11.1-10.5,20.1-5-1.7,12.5,1.5,25.9,11.7,34.4ZM307.9,112.4c-2.2-10,1.5-24.7,12.8-27.2,3.5-.8,7.7-.4,12.4,2.4-17.8-6.9-25.7,10.4-25.2,24.9ZM328.6,82.5c-12.7-1.7-20.2,4.6-22.3,15.6.4-13.4,9.9-19.7,22.3-15.6Z" fill="#fff" stroke-width="0"/>
      <path d="M603.6,183c5.7-2.5,10.6-5.5,14.2-9.1,0,0-6.9-4.4-14.7-4.1,3.3-3.2,4.9-6,4.9-6,0,0-2.8-.2-6.5.6,5.8-7.4,10-19.1,1.5-27.6-1.4,1-3,2.4-4.1,3.7-8.1-16-24.9-10.3-24.8,3.8,8.8-6.8,16-1.5,17,6.6,1.4,10.6-6.9,17.7-15.4,22.5-3.8,2.2-8.2,4-12.7,5.4,8.1-6.5,10.4-21.8-1.4-26.3-6.3-2.4-14.3-1-17.4,5.1,4.7-2.4,9.3-1.9,12.2,2.7-2.2.1-4.3,1.2-4.3,1.2h0c26.1,30.2-34.8,20.5-46.8,11.5,38.1,38.1,87.9-3.8,113.6,33-20.5-15.1-44.5-14.7-69.6-10.5,35.6,1.6,57.1-.2,76.3,28.2-40.6-36.4-62-16.3-95.2-30.4,12.6,9.9,31.2,11.1,45.3,16,11.5,4,19.8,12,12.8,27.2,3.5-12.2-2.7-21.1-13.8-24.2,18,10,5.5,31.6-6.1,19.7-2.5,4.8-2,13.5,8.5,14.8,0,0-3,2.1-6,6.4,21.8,4.8,35.6-19.8,21.7-40.7,21.4,22.1,37.2,9.7,44.6,38.6,12.4-28.5-.4-58.2-33.8-68.2ZM545,183.4c11.1-1.7,20.7-8.4,21.2-22.8,3.1,14.8-9,22.6-21.2,22.8ZM560.9,183.8c19.3-3.4,39.5-13.9,32.6-38.2,11.7,23.5-10.5,37.9-32.6,38.2Z" fill="#fff" stroke-width="0"/>
      <path d="M503.2,160.4c20.9-11,38.2-52.5,11.6-69.1,7.3,9.6,8.7,19.7,7.6,28.7-3.5-4.3-8.2-6.2-12.3-4,16.1,11.2,3.3,34.3-6.8,44.5h0ZM520.3,140c2.2-7.2,2.1-12.4-.3-18.2,4.7,4.7,3.5,13.2.3,18.2ZM514.4,117.5c9.9,6,6.5,22.5,0,30.9,5.3-8.6,7.5-23.6,0-30.9Z" fill="#fff" stroke-width="0"/>
      <path d="M519.9,151.9c-1.5,1.1-1.6,2.8-1,3.7,1.2,1.6,3.7.7,3.5-1.6-.3-2.7,3.2-.5,2.6,2.8-.3,1.8-1.5,4-5.6,5.9-5.1,2.4-10.9,2.6-15.7.8,8,7.2,17.8,2.9,26.5,2.4,6.4-.4,7.4,3.4,6.3,5.7-1,2.2-4.5,2.4-5.5-.5-1.7,4.2,2.2,6.3,5.6,5.3,4.2-1.3,5.6-7.6,2.8-10.3,2.1,0,4.7-.8,6.5-2,0,0-3.8-7.2-11.3-5.4,3.5-4.2,3-7.2,9.2-9.2-4.7-1.8-9.3.5-10.8,3.6.2-2.2-1.1-4.3-2.4-5.2-.8,3.5-2.2,6.4-4,8.8.4-4.1-3.2-7.5-6.7-4.9ZM541.5,163c-9.4-3-14.6,1.2-22.3,2.3,8.8-2.7,14.1-6.7,22.3-2.3Z" fill="#fff" stroke-width="0"/>
      <path d="M207.2,212.6c-13.9,20.8,0,45.5,21.7,40.7-3-4.3-6-6.4-6-6.4,10.5-1.3,11-10,8.5-14.8-11.5,11.8-24.1-9.7-6.1-19.7-11.1,3.1-17.3,12-13.8,24.2-7-15.2,1.2-23.1,12.8-27.2,14.1-4.9,32.7-6.1,45.3-16-33.2,14-54.6-6.1-95.2,30.4,19.2-28.4,40.7-26.6,76.3-28.2-25.1-4.2-49.1-4.6-69.6,10.5,25.7-36.9,75.5,5.1,113.6-33-12.1,9-72.9,18.7-46.8-11.5h0s-2.1-1.1-4.3-1.2c2.9-4.6,7.5-5.1,12.2-2.7-3.1-6.1-11.1-7.5-17.4-5.1-11.8,4.5-9.5,19.9-1.4,26.3-4.6-1.4-8.9-3.3-12.7-5.4-8.5-4.8-16.8-11.9-15.4-22.5,1-8.1,8.2-13.4,17-6.6.1-14-16.7-19.8-24.8-3.8-1.1-1.3-2.6-2.8-4.1-3.7-8.5,8.5-4.3,20.2,1.5,27.6-3.6-.9-6.5-.6-6.5-.6,0,0,1.6,2.7,4.9,6-7.8-.3-14.7,4.1-14.7,4.1,3.7,3.6,8.5,6.6,14.2,9.1-33.4,10-46.1,39.8-33.8,68.2,7.4-28.9,23.2-16.5,44.6-38.6ZM233.7,160.5c.5,14.5,10.1,21.1,21.2,22.8-12.2-.3-24.4-8.1-21.2-22.8ZM206.5,145.6c-6.9,24.3,13.2,34.8,32.6,38.2-22.1-.3-44.2-14.7-32.6-38.2Z" fill="#fff" stroke-width="0"/>
      <path d="M296.8,160.4h0c-10.1-10.2-22.9-33.3-6.8-44.5-4.2-2.2-8.8-.3-12.3,4-1.2-9,.3-19,7.6-28.7-26.7,16.6-9.4,58.1,11.6,69.1ZM280,121.8c-2.4,5.8-2.5,11.1-.3,18.2-3.3-5.1-4.4-13.5.3-18.2ZM285.6,117.5c-7.5,7.3-5.4,22.3,0,30.9-6.5-8.4-9.8-24.9,0-30.9Z" fill="#fff" stroke-width="0"/>
      <path d="M254.2,164.1c1.7,1.1,4.4,2,6.5,2-2.8,2.7-1.5,8.9,2.8,10.3,3.3,1,7.3-1.1,5.6-5.3-1,3-4.4,2.7-5.5.5-1.1-2.4-.2-6.1,6.3-5.7,8.7.5,18.5,4.8,26.5-2.4-4.8,1.7-10.6,1.5-15.7-.8-4.1-1.9-5.3-4.1-5.6-5.9-.6-3.3,2.8-5.4,2.6-2.8-.2,2.3,2.3,3.3,3.5,1.6.7-.9.5-2.6-1-3.7-3.5-2.6-7.1.7-6.7,4.9-1.8-2.4-3.2-5.3-4-8.8-1.3.9-2.6,3-2.4,5.2-1.5-3.1-6-5.5-10.8-3.6h0c6.3,2,5.8,5,9.2,9.2-7.5-1.8-11.3,5.4-11.3,5.4ZM280.8,165.3c-7.7-1.1-12.9-5.3-22.3-2.3,8.2-4.4,13.5-.4,22.3,2.3Z" fill="#fff" stroke-width="0"/>
      <path d="M359.3,249.7c0-13.5-11-24.5-24.5-24.5h-12.3c-13.5,0-24.5,11-24.5,24.5-6.8,0-12.3,5.5-12.3,12.3s2.4,8.4,6.1,10.6v26.2c0,1.7,1.4,3.1,3.1,3.1h3.1v6.1c0,1.7,1.4,3.1,3.1,3.1s3.1-1.4,3.1-3.1v-6.1h49.1v6.1c0,1.7,1.4,3.1,3.1,3.1s3.1-1.4,3.1-3.1v-6.1h3.1c1.7,0,3.1-1.4,3.1-3.1v-26.2c3.7-2.2,6.1-6.2,6.1-10.6,0-6.8-5.5-12.3-12.3-12.3ZM304.1,249.7c0-10.1,8.3-18.4,18.4-18.4h12.3c10.1,0,18.4,8.3,18.4,18.4v1.7c-3.6,2.1-6.1,6-6.1,10.6v8.4c-13.1-2.9-25.4-3-36.8-.1v-8.3c0-4.5-2.5-8.4-6.1-10.6v-1.7ZM347,276.7v6.8h-36.8v-6.9c11.3-3.1,23.4-3.1,36.8,0ZM361.3,267.7c-1.2.4-2,1.6-2,2.9v25.1h-61.3v-25.1c0-1.3-.8-2.5-2-2.9-2.5-.9-4.1-3.2-4.1-5.7s2.8-6.1,6.1-6.1,6.1,2.8,6.1,6.1v24.5c0,1.7,1.4,3.1,3.1,3.1h42.9c1.7,0,3.1-1.4,3.1-3.1v-24.5c0-3.4,2.8-6.1,6.1-6.1s6.1,2.8,6.1,6.1-1.6,4.9-4.1,5.7Z" fill="#fff" stroke-width="0"/>
      <circle cx="319.4" cy="243.5" r="3.1" fill="#fff" stroke-width="0"/>
      <path d="M337.8,246.6c1.7,0,3.1-1.4,3.1-3.1s-1.4-3.1-3.1-3.1-3.1,1.4-3.1,3.1,1.4,3.1,3.1,3.1Z" fill="#fff" stroke-width="0"/>
      <circle cx="319.4" cy="255.8" r="3.1" fill="#fff" stroke-width="0"/>
      <path d="M337.8,258.9c1.7,0,3.1-1.4,3.1-3.1s-1.4-3.1-3.1-3.1-3.1,1.4-3.1,3.1,1.4,3.1,3.1,3.1Z" fill="#fff" stroke-width="0"/>
      <path d="M413.2,157.9h-2.5c0,0-.9,2.3-.9,2.3-1.9,5.1-5.7,8.4-9.7,8.4s-7.8-3.3-9.7-8.4l-.9-2.4h-2.5c-16,.5-33.8,4-52.9,10.5-15.4,5.2-31.7,12.3-48.5,21.1l-.9.5-.5.8c-4.2,6.8-13.1,10.7-19.8,12.8-8.6,2.6-17.5,3.4-22.4,3l-3.5-.3-.3,3.5c-2.9,32.1-2.9,62.7-.2,90.7,3.1,32,9.9,61.8,20.3,88.6,6,15.6,13.4,30.5,21.9,44.2,9,14.5,19.3,27.8,30.6,39.6,24.9,25.9,54.6,44.2,88.3,54.6l1,.3,1-.3c33.6-10.4,63.3-28.7,88.3-54.6,11.3-11.8,21.6-25.1,30.6-39.6,8.5-13.7,15.9-28.6,21.9-44.2,10.4-26.8,17.2-56.5,20.3-88.6,2.7-28.1,2.7-58.6-.2-90.7l-.3-3.5-3.5.3c-5,.4-13.8-.3-22.4-3-6.7-2.1-15.6-6-19.8-12.8l-.5-.8-.9-.5c-16.8-8.8-33.1-15.9-48.5-21.1-19.2-6.4-37-9.9-52.9-10.4ZM533.8,210.1c7,2.2,15.1,3.4,21.6,3.4h0c5.5,66.3-1.2,124.4-19.9,172.8-26,67.2-74,114.7-135.3,133.9-61.3-19.2-109.3-66.8-135.3-133.9-18.7-48.4-25.4-106.5-19.9-172.8h0c6.5,0,14.5-1.2,21.6-3.4,7.6-2.3,17.7-6.8,23.2-15,25-13,61.3-28.5,95.2-30.1,3.2,6.5,9,10.6,15.2,10.6s12-4.1,15.2-10.6c33.8,1.6,70.1,17.1,95.2,30.1,5.5,8.2,15.6,12.7,23.2,15Z" fill="#fff" stroke-width="0"/>
      <path d="M476.1,396.9c4.9,0,8.8-3.9,8.8-8.8v-26.4c0-4.9-3.9-8.8-8.8-8.8h-39.6c-4.9,0-8.8,3.9-8.8,8.8v26.4c0,4.9,3.9,8.8,8.8,8.8v11c0,.9.5,1.6,1.3,2,.3.1.6.2.9.2.5,0,1-.2,1.4-.5l14.8-12.7h21.2ZM452.7,393l-11.8,10.1v-8.4c0-1.2-1-2.2-2.2-2.2h-2.2c-2.4,0-4.4-2-4.4-4.4v-26.4c0-2.4,2-4.4,4.4-4.4h39.6c2.4,0,4.4,2,4.4,4.4v26.4c0,2.4-2,4.4-4.4,4.4h-22c-.5,0-1,.2-1.4.5Z" fill="#fff" stroke-width="0"/>
      <path d="M492.2,366.6c-1.1-.4-2.4.2-2.8,1.4-.4,1.1.2,2.4,1.4,2.8,1.7.6,2.9,2.3,2.9,4.1v26.4c0,2.4-2,4.4-4.4,4.4h-2.2c-1.2,0-2.2,1-2.2,2.2v8.4l-11.8-10.1c-.4-.3-.9-.5-1.4-.5h-19.5c-1.2,0-2.2,1-2.2,2.2s1,2.2,2.2,2.2h18.7l14.8,12.7c.4.3.9.5,1.4.5s.6,0,.9-.2c.8-.4,1.3-1.1,1.3-2v-11c4.9,0,8.8-3.9,8.8-8.8v-26.4c0-3.7-2.4-7.1-5.9-8.3Z" fill="#fff" stroke-width="0"/>
      <path d="M469.5,366.1h-26.4c-1.2,0-2.2,1-2.2,2.2s1,2.2,2.2,2.2h26.4c1.2,0,2.2-1,2.2-2.2s-1-2.2-2.2-2.2Z" fill="#fff" stroke-width="0"/>
      <path d="M460.7,374.9h-17.6c-1.2,0-2.2,1-2.2,2.2s1,2.2,2.2,2.2h17.6c1.2,0,2.2-1,2.2-2.2s-1-2.2-2.2-2.2Z" fill="#fff" stroke-width="0"/>
      <path d="M426.4,559.8c0-.4-.1-.7-.3-1.1-.1-.3-.3-.5-.5-.7-.5-.4-1.3-.3-1.8-.2-.2,0-.4,0-.6.1,0,0-.2,0-.2.1,0,0,0,.1,0,.2,0,.1,0,.3,0,.4,0,.2,0,.5,0,.7,0,.3,0,.5.1.8,0,.3,0,.7.1,1.1,0,.5.1,1,.2,1.3,0,0,.1.2.2.2,0,0,.1,0,.2,0,.2,0,.6,0,.8-.1,1-.2,1.3-.3,1.6-.9.2-.3.2-.7.2-1,0-.3,0-.5,0-.8Z" fill="#fff" stroke-width="0"/>
      <path d="M435.3,552.1c.3,0,.7-.3.7-.7,0-.1,0-.3,0-.4-.1-.5-.6-.9-1.1-.7-.3,0-.6.3-.7.6,0,.2,0,.3,0,.5.1.6.6.8,1.1.7Z" fill="#fff" stroke-width="0"/>
      <path d="M310.2,536c-.4.4-.6.6-.9.9-.3.3-.7.7-1.1,1.1,0,0-1.5,1.5-1.6,1.7,0,0-.1.1-.3.3,0,0,0,0,0,0,0,0,0,.2,0,.2.3.2.6.4.8.5h0c.6.4,1,.6,1.2.7,0,0,.2,0,.2,0,0-.2.1-.4.1-.4,0,0,.2-.6.4-1.1.2-.5.4-1.1.4-1.2.2-.5.3-.9.4-1.3.2-.5.3-.8.5-1.4,0-.1,0-.1-.1,0Z" fill="#fff" stroke-width="0"/>
      <path d="M321,540.4c-.2,0-.4-.2-.6-.3,0,0-.2,0-.2,0,0,0,0,0-.1.1,0,.1-.1.2-.2.3-.1.2-.2.4-.3.6-.1.2-.2.5-.4.7-.1.2-.3.6-.5,1-.2.4-.4.9-.6,1.2,0,0,0,.2,0,.2,0,0,.1,0,.2,0,.2.1.6.3.7.3.9.4,1.2.5,1.8.2.3-.1.6-.5.7-.7.1-.2.3-.5.4-.7.2-.3.3-.7.4-1.1,0-.3,0-.6,0-.9-.2-.6-.9-.9-1.4-1.2Z" fill="#fff" stroke-width="0"/>
      <path d="M437.9,561.9c0,0-.2-.6-.5-1-.2-.5-.5-1.1-.5-1.2-.2-.4-.4-.8-.6-1.3-.2-.4-.3-.8-.6-1.3,0-.1,0,0,0,0,0,.6,0,.9,0,1.3,0,.5,0,1,0,1.5,0,0,0,2.1,0,2.3,0,0,0,.2,0,.5,0,0,0,0,0,0,0,0,0,.1.2.1.3,0,.7-.1.9-.2h0c.7-.1,1.2-.2,1.4-.3,0,0,.1-.1.1-.2,0-.2-.2-.4-.2-.4Z" fill="#fff" stroke-width="0"/>
      <path d="M524.4,519.1c-.7,1.1-1.3,2.2-2.1,3.2-.8,1.1-2.1,1.8-3.5,1.8s-3.4-1.1-4.1-2.8c-.4-1-2.6-5.9-10.9-9.5-.8-.3-1.8-.7-2.8-1.1-4,3.2-8.7,6.7-14,10.2-26,16.8-55.1,25.3-86.6,25.3s-60.6-8.5-86.6-25.3c-5.4-3.5-10.1-7-14-10.2-1,.4-2,.7-2.8,1.1-8.3,3.6-10.5,8.5-10.9,9.5-.7,1.7-2.3,2.8-4.1,2.8s-2.7-.7-3.5-1.8c-.8-1-1.4-2.1-2.1-3.2-1.8-3-4-6.5-9.3-11l-12.6,9.8c2.1,2.7,52,65.3,146,65.3s143.9-62.6,146-65.3l-12.6-9.8c-5.3,4.5-7.5,8-9.3,11ZM314.3,531.5c0-.1.2-.3.3-.4.4-.3.9-.3,1.3,0,.6.3.8,1,.4,1.6-.1.2-.3.3-.5.5-.4.2-.8.2-1.1,0-.6-.4-.8-1.1-.4-1.6ZM311.2,529.7c0-.1.2-.3.3-.4.4-.3.9-.3,1.3,0,.6.3.8,1,.4,1.6-.1.2-.3.3-.5.5-.4.2-.8.2-1.1,0-.6-.4-.8-1.1-.4-1.6ZM310.3,545.2c-.4,1.4-.6,1.7-.6,2.2,0,.5.2.9.2,1.3,0,0,0,.1-.1.1,0,0-.2,0-.2-.1-.3-.2-.6-.3-.9-.5-.6-.3-.9-.6-1.6-.9-.2-.1-.4-.2-.5-.3-.2-.1-.5-.3-.7-.4,0,0,0,0-.1,0,0,0-.2,0-.2-.1,0,0,0-.2,0-.2.4-.1.8-.2,1.1-.4.2-.1.3-.2.4-.4.2-.3.3-.6.5-1.1,0,0,.1-.3.2-.7,0-.1,0-.2,0-.3-.1,0-.4-.3-1.2-.7-.3-.2-1.2-.7-1.5-.9,0,0,0,0,0,0,0,0-.2,0-.3,0-.3.3-.5.5-.5.5-.3.3-.6.6-.8.9,0,.2-.2.3-.2.5,0,.4,0,.8.1,1.2,0,0,0,.1-.1.1-.1,0-.3-.2-.4-.2-.2-.1-.9-.5-1.2-.7-.6-.4-.8-.5-1.4-.9,0,0,0,0-.1,0,0,0-.2,0-.2-.1,0,0,0-.2,0-.2.4-.1.8-.2,1.2-.3.6-.2.8-.5,1.9-1.5.5-.5.8-.8,1.3-1.2.4-.4.8-.8,1.2-1.2,0,0,.9-.9,1.8-1.7.4-.4.9-.8,1.3-1.2s.8-.7,1.1-1.1c.3-.3.5-.4.6-.7,0-.2.1-.3.1-.5,0-.2,0-.4,0-.6,0-.2,0-.3,0-.4,0,0,.1,0,.3,0,.4.2.6.3,1,.6.2.1.3.2.5.3.2.1.4.2.6.3.4.2.7.4,1,.6.2.1.5.3.7.5.2.1.3.2.3.3,0,0-.2.1-.3.2-.2,0-.5.1-.7.3-.1,0-.2.2-.3.3-.1.2-.2.5-.3.8-.4,1-.6,2.1-1,3.1,0,.2-.7,2.2-.8,2.3-.2.5-.3,1.1-.5,1.6-.2.5-.3.9-.5,1.7ZM321.2,547.3c-.1,0-.2.1-.2.2,0,.5-.1,1.1-.2,1.7,0,.6,0,1-.1,1.7-.1,1.7-.2,2.1,0,2.9,0,.2,0,.3.1.5,0,0,0,.2,0,.2-.1,0-.3-.1-.3-.2-.9-.5-1.8-.9-2.7-1.4h0c-.3-.2-.7-.3-1-.5,0,0,0,0-.1,0,0,0-.2,0-.2-.1-.1,0,0-.1,0-.2.4-.1.8-.2,1.1-.5,0,0,.1-.1.2-.2.1-.2.1-.5.2-.8,0-.5.1-.9.2-1.3,0-.6,0-1.2.2-2,0,0,0-.2,0-.4,0-.1,0-.2-.2-.2-.2,0-.3-.2-.5-.2,0,0-.4-.2-.4-.2,0,0-.2,0-.2,0-.2.5-.4.7-.4.8-.2.5-.4.8-.7,1.4-.6,1.1-.6,1.2-.7,1.7,0,.5,0,1,.1,1.4,0,0,0,.1-.1.1,0,0-.2,0-.2,0-.6-.3-1.2-.6-1.9-1-.5-.3-1.1-.5-1.5-.8,0,0,0,0-.1,0,0,0-.2,0-.2-.1-.1,0,0-.1,0-.2.6-.2,1.3-.6,1.6-1.3.4-.7.7-1.3,1.1-2,.3-.5.5-.8.7-1.4.1-.2.2-.5.4-.8.4-.7.7-1.3,1-2,.3-.6.6-1.1.8-1.7.3-.6.5-1.1.8-1.7.2-.6.2-1.1,0-1.7,0-.2,0-.3,0-.4,0,0,.1,0,.3,0,.3.2.5.2.8.4.4.2.8.4,1.2.6,1,.5.1,0,2.4,1.2.3.2.7.4,1,.6.8.5,1.6,1.4,1.8,2.4.2.9,0,1.7-.3,2.5-.5,1.1-.9,1.7-1.6,2.4-.4.4-1,.6-1.6.7-.1,0-.2,0-.3,0ZM331.6,556c-.2.4-.2.6-.5,1.1-.1.3-.2.5-.4.8,0,0,0,0,0,0,0,.2-.1.4-.2.5,0,0,0,.1-.2.1,0,0-.2,0-.2,0-.5-.2-.9-.4-1.3-.6h0c-.4-.2-.9-.4-1.3-.6-.7-.3-1-.5-1.7-.7-.7-.3-1.4-.6-2.1-.9-.5-.2-.9-.4-1.4-.6h0c-.2,0-.2-.1-.2-.2,0,0,.1-.1.3-.2.5-.2.9-.6,1.2-1.1.3-.5.5-1,.8-1.6.3-.6.5-1.1.7-1.6.3-.7.6-1.4.9-2.2.1-.3.2-.5.3-.7.2-.5.4-.9.6-1.3.3-.7.6-1.5.9-2.3.3-.6.2-1.4,0-2,0,0,0-.2.1-.1,0,0,.2,0,.2,0,.4.2.8.4,1.2.5.1,0,.2.1.4.2h0c.4.2.8.3,1.2.5.3.1.5.2.7.3.3.1.4.2.3.3,0,0-.1.1-.3.2-.3.1-.5.3-.7.4-.4.4-.5.8-.8,1.4-.1.3-.3.6-.4.8-.3.7-.6,1.5-.9,2.2,0,.2-.9,2.1-.9,2.2-.2.4-.4.9-.6,1.3-.2.5-.4.9-.7,1.5l-.3.8c0,0,0,.2,0,.2.2,0,.4.2.7.3.2,0,.4.2.7.3.6.3,1.1.5,1.7.7.6.2,1.1.1,1.7,0,.2,0,.3,0,.4,0,0,0,0,.1,0,.3ZM338.4,552c-.3.7-.5,1.4-.8,2.2-.1.3-.2.5-.3.7-.2.5-.3.9-.5,1.4-.3.8-.6,1.6-.8,2.3-.2.6,0,1.4.2,2,0,0,0,.2-.1.1,0,0-.2,0-.2,0-.5-.2-1-.4-1.5-.6-.5-.2-1-.4-1.5-.5-.3-.1-.5-.2-.7-.3-.3-.1-.4-.2-.3-.3,0,0,.1-.1.3-.2.5-.3.9-.6,1.2-1.2.3-.6.5-1.1.7-1.7,0-.2.2-.5.3-.7.2-.6.5-1.3.7-1.9.2-.4.3-.8.5-1.3.1-.3.2-.5.3-.7.2-.5.3-.9.5-1.4.3-.8.6-1.6.8-2.3.2-.6,0-1.4-.2-2,0,0,0-.1.1-.1,0,0,.2,0,.2,0,.4.2.8.3,1.3.5.1,0,.3.1.4.2.4.2.9.3,1.3.5.3.1.5.2.7.3.3.1.4.2.3.3,0,0-.1.1-.3.2-.5.3-.9.6-1.2,1.2-.3.6-.5,1.1-.7,1.7-.2.6-.5,1.1-.7,1.7ZM348.5,560.6c-.4.8-.7,1.4-1.3,1.9-.5.5-1.2.8-1.9,1-.3,0-.6,0-.9,0-.4,0-.9,0-1.3-.2h0c-.3,0-.5-.2-.8-.3-1.3-.6-2.4-1.6-2.7-3.3-.4-1.8-.2-3.5.4-5.3.2-.8.6-1.5.9-2.2.4-.8,1-1.7,1.7-2.3.8-.6,1.5-1.1,2.5-1.2.8-.1,1.6,0,2.2.1.8.2,1.4.7,1.8,1.3.2.3.4.5.7.6.3,0,.6,0,1.1-.3.1,0,.3-.1.4-.1,0,0,.1.1,0,.4-.2.5-.4,1.1-.6,1.7-.2.6-.4,1.2-.5,1.6,0,.2-.1.4-.2.6,0,0,0,0,0,0,0,.1-.1.3-.2.3-.1,0-.2,0-.4,0-.3,0-.4-.1-.6-.2-.1,0-.2,0-.2-.1,0,0,0-.2,0-.6,0-.2,0-.5,0-.7,0-.4-.1-.9-.3-1.3-.2-.5-.7-.9-1.1-1-.4-.1-.8-.1-1.2,0-.9.3-1.7,1.2-2.1,2-.4.7-.7,1.4-.9,2.2,0,.2-.1.4-.2.6-.2.8-.4,1.8-.4,2.7,0,1.1.5,2.5,1.7,2.9.6.2,1.3,0,1.8-.3.3-.2.5-.5.7-.9s.3-.7.4-1.1c0-.1,0-.3.1-.4,0-.1,0-.3,0-.3-.2,0-.3-.1-.5-.2-.2,0-.4-.1-.5-.2-.2,0-.4-.1-.5-.2,0,0-.1,0-.2,0,0,0,0-.1,0-.2,0,0,0-.2,0-.3,0,0,0,0,0-.1,0-.2.1-.4.2-.6,0-.1,0-.3.1-.5,0,0,0,0,0-.1,0,0,0,0,0,0,0,0,0-.1.2,0,0,0,.2,0,.3,0,.4.1.8.3,1.2.4.6.2,1.2.4,1.8.6,0,0,.2,0,.2,0h0c.2,0,.2,0,0,.3l-.3.8c0,.1,0,.3-.1.4,0,.2-.1.4-.2.5-.2.7-.4,1.1-.6,1.4ZM361,558.5c-.2.7-.3,1.6-.6,2.4,0,.3-.1.6-.2.8-.1.6-.2.9-.3,1.4-.2.8-.4,1.6-.6,2.4-.1.7,0,1.4.4,2,0,0,0,.1-.1.1,0,0-.2,0-.3,0-.4-.1-.9-.2-1.3-.3-.1,0-.3,0-.4-.1-.5-.1-.9-.2-1.4-.3-.3,0-.5-.1-.8-.2-.3,0-.4-.1-.4-.2,0,0,.1-.1.3-.3.5-.3.8-.7,1-1.3.2-.6.4-1.1.5-1.8,0-.2.1-.5.2-.7.2-.8.4-1.5.6-2.3,0,0,0-.2-.1-.2-.3,0-.7-.2-1-.2-.6-.2-1.3-.3-1.9-.5-.1,0-.2,0-.2.1,0,0,0,0,0,.1,0,.3-.1.6-.2.8-.1.6-.2.9-.3,1.4-.2.8-.4,1.6-.6,2.4-.1.7,0,1.4.4,2,0,0,0,.1-.1.1,0,0-.2,0-.3,0-.5-.1-1.1-.3-1.6-.4-.5-.1-1-.2-1.5-.4h0c-.3,0-.5-.1-.8-.2-.3,0-.4-.1-.4-.2,0,0,.1-.1.3-.3.5-.3.8-.7,1-1.3.2-.6.4-1.1.5-1.8.1-.5.3-1,.4-1.5.2-.8.3-1.6.6-2.5,0-.3.1-.6.2-.8.1-.6.2-.9.3-1.4.2-.8.4-1.6.6-2.4.1-.7,0-1.4-.4-2,0,0,0-.1.1-.1,0,0,.2,0,.3,0,.4.1.9.2,1.3.3.1,0,.3,0,.4.1.5.1.9.2,1.4.3.3,0,.5.1.8.2.3,0,.4.1.4.2,0,0-.1.1-.3.3-.5.3-.8.7-1,1.3-.2.6-.4,1.1-.5,1.8,0,.2-.1.5-.2.7,0,.3-.1.6-.2.9,0,0,0,.2.1.2.4,0,.6.2,1.1.3.4,0,.7.2,1.1.3.2,0,.5.1.7.2,0,0,.2,0,.2-.1,0-.3.1-.6.2-.9.2-.8.4-1.6.6-2.4.1-.7,0-1.4-.4-2,0,0,0-.1.1-.1,0,0,.2,0,.3,0,.5.1,1.1.3,1.6.4.5.1,1,.2,1.5.4.3,0,.5.1.8.2.3,0,.4.1.4.2,0,0-.1.1-.3.3-.5.3-.8.7-1,1.3-.2.6-.4,1.1-.5,1.8-.1.6-.3,1.1-.4,1.6ZM373.2,555.6c0,.3-.1.6-.2.9,0,.5-.2.9-.2,1.3,0,0,0,0,0,.1,0,0,0,.2,0,.2,0,.1-.1.1-.2,0-.4-.5-1-1-1.6-1.1-.5-.1-1.1-.2-1.7-.3-.2,0-.4,0-.7-.1-.2,0-.4,0-.6-.1,0,0-.2,0-.2.1,0,.1,0,.2,0,.4,0,.3-.1.6-.2.9-.1.8-.3,1.6-.4,2.4,0,0,0,.2.1.2.2,0,.3,0,.5,0,.4,0,.7.1,1.1.2.4,0,.8.1,1.1.2,0,0,.1,0,.2,0,0,0,0,.1,0,.2,0,.1,0,.2,0,.3,0,.2,0,.5-.1.7,0,.2,0,.3,0,.5,0,0,0,0,0,.1,0,0,0,0,0,0,0,0,0,0-.1,0-.1,0-.2,0-.3,0-.6-.1-1.1-.2-1.7-.3-.3,0-.6-.1-.9-.2-.1,0-.2,0-.2.1,0,.5-.2.9-.3,1.4-.1.6-.2.9-.3,1.6,0,.3,0,.5-.1.8,0,.1,0,.2.1.2.5.1,1.1.2,1.7.3.6.1,1,.1,1.6.2.6,0,1.1-.1,1.6-.4.2,0,.3-.2.4-.1,0,0,0,0,0,.3,0,.5-.1.7-.2,1.3,0,.3,0,.5-.1.8,0,0,0,0,0,.1,0,.2,0,.3-.1.5,0,0,0,.1-.1.2,0,0-.2,0-.2,0-.5,0-1-.2-1.4-.3-.5,0-.9-.2-1.4-.3-.7-.1-1.1-.2-1.6-.3-.2,0-.5,0-.7-.1,0,0,0,0,0,0,0,0-.2,0-.3,0-.1,0-.2,0-.4,0h0c0,0-.7-.1-1.2-.2,0,0-.1,0-.2,0-.5,0-.7-.1-1-.2-.3,0-.4-.1-.4-.2,0,0,.1-.2.3-.3.4-.3.8-.8.9-1.4.2-.6.3-1.1.4-1.8,0-.2,0-.5.1-.7.1-.7.2-1.3.4-2,0-.4.2-.9.3-1.3,0-.3.1-.6.2-.8.1-.6.1-.9.2-1.4.1-.8.3-1.6.4-2.4.1-.7-.2-1.4-.5-2,0,0,0-.1,0-.2,0,0,.2,0,.3,0,.4,0,.9.2,1.3.3.1,0,.3,0,.4,0,.4,0,.6.1,1,.2.9.2,1.8.4,2.7.5.8.1,1.6.3,2.4.4.1,0,.2,0,.4,0,0,0,0,0,0,0,0,0,.1,0,.1,0,0,0,0,.1,0,.2ZM383.6,556.9c0,.5-.1,1.1-.2,1.5,0,.3,0,.5-.1.8,0,.3,0,.4-.2.4,0,0-.2,0-.3-.2-.4-.4-.8-.8-1.4-.9-.4,0-.7-.1-1.1-.2,0,0-.2,0-.2.2,0,.6-.2,1.1-.2,1.5,0,.2,0,.5,0,.7,0,.7-.1,1.3-.2,2,0,.4-.1.9-.2,1.4,0,.3,0,.6-.1.8,0,.6,0,.9-.2,1.4,0,.8-.2,1.6-.3,2.4,0,.7.3,1.4.6,1.9,0,0,0,.1,0,.2,0,0-.2,0-.3,0-.5,0-1.1-.1-1.6-.2-.5,0-1-.1-1.5-.2h0c-.3,0-.5,0-.8-.1-.3,0-.4,0-.4-.2,0,0,0-.2.2-.3.4-.4.7-.8.9-1.4.1-.6.2-1.1.3-1.8,0-.7.2-1.3.3-2,0-.6.1-1.3.2-2.1,0-.3,0-.6.1-.8,0-.6,0-.9.2-1.4,0-.4.1-.9.2-1.4,0-.3,0-.6,0-.8,0-.1,0-.2-.2-.2-.3,0-.7,0-1-.1-.7,0-1.4.3-2,.7,0,0-.1,0-.2,0,0,0,0-.2,0-.3,0-.4.1-.9.2-1.3,0-.1,0-.3,0-.4,0-.2,0-.4,0-.6,0-.2.2-.2.4-.2l1.4.2c.7,0,1.5.2,2.2.3.7,0,1.4.2,2.2.2.3,0,.9.1,1.2.1l1.7.2c.2,0,.3,0,.3.3ZM433.2,550.5c.2-.7.8-1.1,1.5-1.3,1.2-.2,2.2.4,2.4,1.5,0,.3,0,.6,0,.9-.1.8-.8,1.3-1.6,1.5-1.1.2-2.1-.3-2.4-1.6,0-.4,0-.7,0-1.1ZM418.8,559.4c0,.1,0,.1-.2,0-.5-.4-1.2-.7-1.9-.7-.6,0-1.1,0-1.7.1-.2,0-.5,0-.7,0-.2,0-.4,0-.6,0-.1,0-.2,0-.2.2,0,.1,0,.3,0,.4,0,.3,0,.6,0,.9,0,.8.2,1.6.2,2.4,0,0,0,.2.2.2.2,0,.3,0,.5,0,.4,0,.7,0,1.1,0,.4,0,.8,0,1.2,0,.2,0,.2,0,.3.2,0,.1,0,.2,0,.3,0,.2,0,.5,0,.7,0,.2,0,.3,0,.5,0,0,0,0,0,.1,0,.1,0,.2-.1.2,0,0-.2,0-.3,0-.6,0-1.1.1-1.7.1-.3,0-.6,0-.9,0-.1,0-.2,0-.2.2,0,.5,0,.9,0,1.4,0,.6,0,.9.1,1.6,0,.3,0,.5,0,.7,0,.7,0,.8.3,1.2.2.4.5.7.7.9,0,0,0,0,0,0,0,0,0,.1,0,.1-.1,0-.4,0-.4,0-.6,0-1.3,0-1.3,0h0c0,0-.9,0-1.6.1-.3,0-.6,0-.9,0-.3,0-.4,0-.4,0,0,0,0-.2.2-.3.4-.4.5-.9.6-1.6,0-.6,0-1.2,0-1.8,0-.7,0-1.4-.1-2.1,0-.6-.1-1.3-.2-2,0-.3,0-.6,0-.8,0-.6,0-.9-.1-1.4,0-.8-.1-1.7-.2-2.4,0-.7-.5-1.3-1-1.8,0,0,0-.1,0-.2,0,0,.2,0,.3,0,.4,0,.9,0,1.3,0s.3,0,.4,0c.4,0,.7,0,1,0,.9,0,1.9-.1,2.7-.2.8,0,1.6-.1,2.5-.2.1,0,.2,0,.4,0,0,0,0,0,0,0,0,0,.1,0,.1,0,0,0,0,.1,0,.2,0,.3,0,.6,0,.9,0,.5,0,.9.1,1.4,0,0,0,0,0,.1,0,0,0,.2,0,.2ZM431.7,569.4c-.1,0-.3,0-.4,0-1,.1-2,.3-3,.4h0c-.4,0-.7,0-1.1.1,0,0,0,0-.1,0,0,0-.2,0-.3,0-.1,0-.1,0,0-.2.2-.3.5-.6.6-1,0,0,0-.2,0-.3,0-.3-.2-.5-.3-.8-.2-.4-.4-.8-.6-1.2-.3-.6-.6-1-1-1.8,0,0,0-.2-.2-.3,0,0-.2-.1-.3-.1-.2,0-.4,0-.5,0,0,0-.4,0-.4,0-.1,0-.2,0-.2.2,0,.5,0,.8.1.9,0,.5.1.9.2,1.5.2,1.2.2,1.4.4,1.8.2.4.6.8.9,1.1,0,0,0,.1,0,.2,0,0-.2,0-.3,0-.7,0-1.4.2-2.1.3-.6,0-1.2.2-1.7.2,0,0,0,0-.1,0,0,0-.2,0-.3,0-.1,0-.1,0,0-.2.4-.5.7-1.3.6-2,0-.7-.2-1.5-.3-2.3,0-.6-.1-1-.2-1.5,0-.2,0-.5-.1-.9-.1-.8-.2-1.5-.3-2.2,0-.6-.2-1.2-.3-1.9,0-.7-.2-1.2-.3-1.8-.1-.6-.5-1-.9-1.4-.1-.1-.2-.2-.2-.3,0,0,0-.1.3-.1.3,0,.5,0,.9-.1.4,0,.9-.1,1.3-.2,1.1-.2.1,0,2.7-.4.4,0,.7,0,1.1,0,1,0,2.1.3,2.8.9.7.6,1,1.4,1.2,2.2.2,1.2.2,2,0,2.9-.1.6-.5,1.1-.9,1.4,0,0-.2.1-.2.2-.1,0,0,.2,0,.3.3.5.5,1,.8,1.5.3.5.5.8.9,1.5.9,1.5,1,1.8,1.7,2.3.1.1.2.2.4.3,0,0,.1.2,0,.2ZM444.1,566.9c0,0-.2,0-.2,0-.3,0-.7.1-1,.2-.6.1-1.1.2-1.8.4h0c-.2,0-.4,0-.6.1-.3,0-.6.1-.8.2,0,0,0,0-.1,0,0,0-.2,0-.3,0-.1,0-.2,0-.1-.1.2-.3.5-.7.5-1.1,0-.2,0-.4,0-.5,0-.3-.2-.6-.4-1.1,0,0-.1-.3-.3-.7,0,0-.1-.2-.3-.1-.2,0-.5,0-1.3.3-.4,0-1.3.3-1.7.4,0,0,0,0,0,0-.1,0-.2.1-.2.2,0,.4,0,.7,0,.8,0,.5,0,.8,0,1.2,0,.2.1.3.2.5.2.3.6.6.9.8,0,0,0,.1,0,.2-.1,0-.3,0-.4,0-.3,0-1,.2-1.3.3-.7.1-.9.2-1.6.3,0,0,0,0-.1,0,0,0-.2,0-.3,0-.1,0-.2,0,0-.1.2-.3.5-.6.6-1,.3-.6.2-.9.3-2.4,0-.8,0-1.2.1-1.7,0-.6,0-1.1,0-1.7,0-.1,0-1.3.2-2.5,0-.6,0-1.2.1-1.7,0-.5,0-1.1,0-1.6,0-.4,0-.6,0-.9,0-.2-.1-.3-.3-.5-.1-.2-.3-.3-.5-.4-.2-.1-.3-.2-.3-.3,0,0,0-.1.2-.2.4,0,.6-.1,1.2-.2.2,0,.4,0,.6-.1.2,0,.4,0,.6-.1.4,0,.8-.2,1.2-.3.3,0,.6-.1.8-.2.3,0,.4,0,.4,0,0,0,0,.2-.1.3-.1.2-.2.4-.3.6,0,.2,0,.3,0,.5,0,.3.2.5.3.8.4,1,.9,2,1.4,3,0,.2,1,2.2,1,2.2.2.5.5,1,.7,1.5.2.5.4.9.7,1.6.6,1.4.7,1.6,1.1,2,.3.4.7.6,1.1.8,0,0,0,.1,0,.2ZM453.3,562.5c-.2.7-.5,1.3-1,1.9-.2.2-.4.4-.7.6-.4.2-.8.4-1.2.5h0c-.3,0-.6.1-.8.2-1.4.2-2.9,0-4.1-1.2-1.3-1.3-2.1-2.9-2.5-4.6-.2-.8-.4-1.6-.4-2.4,0-.9-.1-2,.2-2.9.3-.9.7-1.7,1.4-2.4.6-.6,1.3-.9,2-1.1.8-.2,1.5-.2,2.2,0,.4.1.6.2.9.1.3,0,.5-.3.7-.8,0-.1.2-.3.2-.3,0,0,.2,0,.2.3.1.5.3,1.1.5,1.7.2.6.3,1.2.4,1.6,0,.2.1.4.2.6,0,0,0,0,0,0,0,.1,0,.3,0,.4,0,0-.2.1-.3.1-.3,0-.4.1-.6.2-.1,0-.2,0-.3,0-.1,0-.2-.1-.4-.5-.1-.2-.3-.4-.4-.6-.3-.3-.6-.7-1-.9-.5-.3-1-.4-1.5-.2-.4,0-.7.3-1,.6-.6.8-.8,1.9-.7,2.8,0,.8.2,1.6.4,2.3,0,.2.1.4.2.6.2.8.6,1.7,1.1,2.5.6,1,1.8,1.8,3,1.5.6-.2,1.1-.6,1.4-1.3.1-.3.2-.7.1-1.1,0-.4-.1-.8-.2-1.1,0-.1,0-.3-.1-.4,0-.1,0-.3-.2-.2-.2,0-.3,0-.5.1-.2,0-.4,0-.6.1-.2,0-.4.1-.5.2,0,0-.1,0-.2,0,0,0,0,0-.1-.1,0,0,0-.2,0-.3,0,0,0,0,0-.1,0-.2,0-.4-.2-.6,0-.2,0-.3-.1-.5,0,0,0,0,0-.1,0,0,0,0,0,0,0,0,0-.1.1-.2,0,0,.2,0,.3,0,.4-.1.8-.2,1.3-.4.6-.2,1.2-.3,1.8-.5,0,0,.2,0,.2,0h0c.2,0,.2,0,.3.2l.2.9c0,.1,0,.3.1.4,0,.2.1.4.2.6.2.7.2,1.1.3,1.5.1.9.1,1.5,0,2.3ZM462.1,561.6h0c-.2,0-.4.1-.6.2-.2,0-.3.1-.5.2-.3.1-.7.2-1,.4-.1,0-.3,0-.4-.1-.5-.8-1.1-1.8-1.2-1.8-.5-.9-1.2-1.8-1.7-2.8-.1-.2-1.2-2-1.3-2.1-.3-.5-.6-.9-.9-1.4-.3-.5-.5-.8-.9-1.5-.8-1.3-.9-1.5-1.3-1.9-.4-.3-.8-.5-1.1-.7,0,0,0-.1,0-.2,0,0,.1,0,.2,0,.3-.1.6-.2.9-.3.3-.1.6-.2.9-.3.2,0,.4-.1.6-.2.2,0,.5-.2.8-.3.3,0,.5-.2.7-.3,0,0,0,0,.1,0,0,0,.2,0,.2,0,.1,0,.2,0,.1.1-.1.4-.3.7-.3,1.1,0,.2,0,.4,0,.6.1.3.3.6.5,1,.3.6.6,1,.9,1.5.3.4.5.8.9,1.4.5.9,1.1,2,1.2,2,.2.4.5.8.7,1.2,0,.1.1.2.2.3v.2c.2.2.2.2.3.2,0,0,0,0,0-.2,0-.1,0-.2,0-.3,0,0,0-.2,0-.3,0-.5-.1-1-.2-1.5,0-.6-.1-1.5-.2-2.3,0-.5,0-1-.1-1.5,0-.6-.1-1.3-.2-1.9,0-.4,0-.8-.2-1.1,0-.2-.1-.3-.3-.5-.3-.3-.6-.5-1-.7,0,0,0-.1,0-.2.1,0,.3-.1.4-.1.2,0,.9-.3,1.2-.4.5-.2,1.1-.4,1.6-.5,0,0,0,0,.1,0,0,0,.2,0,.2,0,.1,0,.2,0,.1.1-.1.3-.3.7-.5,1.1-.2.6-.1.9,0,2.4,0,.8,0,1.2.1,1.7,0,.6.1,1.1.2,1.6,0,.1.1,1.3.2,2.5,0,1.2.1,2.2.3,3.3,0,.1.1,1.2.3,2.1,0,.1,0,.3-.2.3ZM471.6,557.9c0,0-.2,0-.2.1-.5.2-1,.4-1.5.6-.5.2-1,.4-1.4.6-.3.1-.5.2-.7.3-.3.1-.4.1-.4,0,0,0,0-.2,0-.4.2-.5.3-1.1,0-1.7-.2-.6-.4-1.1-.6-1.7,0-.2-.2-.5-.3-.7-.3-.6-.5-1.2-.8-1.9-.2-.4-.3-.8-.5-1.3-.1-.3-.2-.5-.3-.7-.2-.5-.4-.9-.6-1.3-.3-.7-.6-1.5-.9-2.3-.3-.6-.9-1.1-1.5-1.4,0,0-.1-.1,0-.2,0,0,.2,0,.2-.1.4-.2.8-.3,1.3-.5.1,0,.3-.1.4-.2.4-.2.9-.4,1.3-.5.3-.1.5-.2.7-.3.3-.1.4-.1.4,0,0,0,0,.2,0,.4-.2.5-.3,1.1,0,1.7.2.6.4,1.1.6,1.7.2.6.4,1.1.6,1.7.3.7.6,1.3.9,2.1.1.3.2.5.3.7.2.5.4.9.6,1.3.3.7.6,1.5.9,2.3.3.6.9,1.1,1.5,1.4,0,0,.1.1,0,.2ZM479.8,553.9c-.4.6-1.1,1.1-1.9,1.5-.7.3-1.5.5-2.2.4-.4,0-.7,0-.9,0-.3.1-.5.4-.6,1,0,.2-.1.3-.2.3,0,0-.2,0-.3-.2-.2-.4-.4-1-.7-1.6-.2-.5-.4-.9-.6-1.3-.1-.3-.2-.5-.3-.7,0,0,0,0,0,0,0-.1-.1-.3,0-.4,0,0,.2-.1.3-.2.3-.1.4-.2.5-.3.1,0,.2,0,.3,0,.1,0,.2.1.5.4.2.2.3.3.5.5.3.3.7.5,1.1.7.5.2,1.3.1,1.8-.1.9-.4,1.4-1.2,1-2.1-.5-1.1-1.8-1.3-2.8-1.2-.8,0-1.5,0-2.2,0-.7,0-1.3-.3-1.8-.6-.8-.4-1.4-1.1-1.8-1.9-.3-.8-.6-1.6-.5-2.5,0-.7.3-1.5.7-2.1.4-.6,1-1.1,1.9-1.5.7-.3,1.5-.5,2.2-.4.4,0,.7,0,.9,0,.3-.1.4-.4.6-1,0-.2.1-.3.2-.3,0,0,.2,0,.3.2.2.4.4,1,.7,1.6.2.5.4.9.6,1.3.1.3.2.5.3.7,0,0,0,0,0,0,0,.1.1.3,0,.4,0,0-.2.1-.3.2-.3.1-.4.2-.5.2-.1,0-.2,0-.3,0-.1,0-.2-.1-.5-.4-.2-.2-.3-.3-.5-.5-.3-.3-.7-.5-1.1-.7-.5-.2-1.2-.1-1.8.1-.4.2-.7.4-.9.8-.3.5-.3,1-.1,1.5.1.3.4.6.7.7.7.4,1.7.4,2.5.3,1.2,0,2.3-.1,3.2.2,1.1.4,1.9,1.2,2.4,2.3.3.6.4,1.2.5,1.8.1,1,0,2-.7,2.9ZM493.3,547.3c0,0-.1.1-.2.1-.4.2-.8.4-1.2.6-.1,0-.3.1-.4.2-.4.2-.8.5-1.2.7-.3.1-.4.2-.7.4-.3.1-.4.2-.4,0,0,0,0-.2,0-.4.1-.5.1-1.1-.1-1.7-.2-.6-.5-1.1-.8-1.6-.1-.2-.2-.4-.3-.6-.4-.7-.7-1.3-1.1-2.1,0,0-.2-.1-.2,0-.3.2-.6.3-.9.5-.6.3-1.2.6-1.7.9,0,0-.1.2,0,.3,0,0,0,0,0,0,.1.3.3.5.4.7.3.5.5.8.7,1.3.4.7.8,1.4,1.2,2.1.3.6,1,1,1.6,1.2,0,0,.1,0,0,.2,0,0-.1.1-.2.1-.5.3-1,.5-1.4.8-.5.2-.9.5-1.4.7h0c-.3.1-.4.2-.7.4-.3.1-.4.2-.4,0,0,0,0-.2,0-.4.1-.5.1-1.1-.1-1.7-.2-.6-.5-1.1-.8-1.6-.2-.4-.5-.9-.7-1.4-.4-.7-.8-1.4-1.3-2.3-.1-.3-.3-.5-.4-.7-.3-.5-.5-.8-.7-1.3-.4-.7-.8-1.5-1.2-2.1-.3-.6-1-1-1.6-1.2,0,0-.1,0,0-.2,0,0,.1-.1.2-.1.4-.2.8-.4,1.2-.6.1,0,.3-.1.4-.2.4-.2.8-.5,1.2-.7.3-.1.4-.2.7-.4.3-.1.4-.2.4,0,0,0,0,.2,0,.4-.1.5-.1,1.1.1,1.7.2.6.5,1.1.8,1.6.1.2.2.4.3.6.1.3.3.5.4.8,0,0,.2.1.2,0,.3-.2.6-.3,1-.6.3-.2.7-.4,1-.5.2-.1.4-.2.7-.4,0,0,.1-.2,0-.2-.2-.3-.3-.5-.4-.8-.4-.7-.8-1.4-1.2-2.1-.3-.6-1-1-1.6-1.2,0,0-.1,0,0-.2,0,0,.1-.1.2-.1.5-.3,1-.5,1.4-.8.5-.2.9-.5,1.4-.8.3-.1.4-.2.7-.4.3-.1.4-.2.4,0,0,0,0,.2,0,.4-.1.5-.1,1.1.1,1.7.2.6.5,1.1.8,1.6.3.5.5,1,.8,1.5.4.7.8,1.4,1.2,2.2.1.3.3.5.4.7.3.5.5.8.7,1.3.4.7.8,1.5,1.2,2.1.3.6,1,1,1.6,1.2,0,0,.1,0,0,.2ZM502.8,541.3c0,0-.1.1-.2.2-.4.3-.8.5-1.2.8-.4.2-.8.5-1.2.7-.6.4-.9.6-1.4.9-.2.1-.4.3-.6.4,0,0,0,0,0,0,0,0-.2.1-.3.2-.1,0-.2.1-.3.2h0s-.6.4-1.1.7c0,0-.1,0-.2.1-.4.3-.6.4-.9.5-.2.2-.4.2-.4.1,0,0,0-.2,0-.4,0-.5,0-1.1-.2-1.6-.3-.6-.6-1-.9-1.6-.1-.2-.3-.4-.4-.6-.4-.6-.7-1.1-1.1-1.7-.2-.4-.5-.7-.7-1.2-.2-.3-.3-.5-.4-.7-.3-.5-.5-.8-.8-1.2-.4-.7-.9-1.4-1.3-2.1-.4-.6-1.1-.9-1.7-1.1,0,0-.1,0,0-.2,0,0,.1-.1.2-.2.4-.2.8-.5,1.2-.7.1,0,.2-.1.4-.2.3-.2.6-.4.9-.6.8-.5,1.6-1,2.3-1.4.7-.4,1.4-.9,2.1-1.3.1,0,.2-.1.3-.2,0,0,0,0,0,0,0,0,.1,0,.2,0,0,0,0,.1.1.2.2.3.3.5.5.8.2.4.5.8.7,1.1,0,0,0,0,0,.1,0,0,0,.2.1.2,0,.1,0,.2-.1.1-.6-.1-1.4,0-2,.3-.5.3-1,.6-1.5.9-.2.1-.4.2-.6.4-.2.1-.3.2-.5.3,0,0-.1.2,0,.2,0,.1.1.2.2.3.1.3.3.5.5.7.4.7.9,1.3,1.3,2,0,0,.2.1.2,0,.1,0,.3-.2.4-.3.3-.2.6-.4,1-.6.3-.2.7-.4,1-.6,0,0,0,0,.1,0,0,0,.1,0,.1,0,0,0,.1.2.2.3.1.2.2.4.4.6,0,.1.2.3.3.4,0,0,0,0,0,.1,0,0,0,0,0,0,0,0,0,.1,0,.2,0,0-.2.1-.3.2-.5.3-.9.6-1.4.9-.3.2-.5.3-.8.5,0,0-.1.2,0,.3.2.4.5.8.7,1.2.3.5.5.8.9,1.4.1.2.3.5.4.7,0,0,.2.1.3,0,.5-.3,1-.6,1.5-.9.5-.3.8-.6,1.3-.9.5-.4.8-.9.9-1.4,0-.2.1-.3.2-.3,0,0,.1,0,.2.2.2.4.4.6.7,1.1.1.2.3.4.4.6,0,0,0,0,0,.1,0,.1.2.3.3.4,0,0,0,.1,0,.2ZM510,536.3c0,0-.1.1-.2.2-.4.3-.9.6-1.3.9-.4.3-.8.6-1.3.9h0c-.3.2-.4.3-.6.4-.2.2-.4.2-.4.1,0,0,0-.2,0-.4,0-.5,0-1.1-.3-1.6-.3-.5-.6-1-1-1.5-.4-.6-.8-1.1-1.2-1.7-.4-.5-.8-1.1-1.2-1.7-.2-.3-.3-.5-.5-.7-.3-.5-.6-.7-.9-1.2-.3-.4-.5-.8-.8-1.2-.2-.2-.3-.5-.5-.7,0,0-.2,0-.3,0-.3.2-.5.4-.8.6-.5.4-.9,1.2-1,1.8,0,0,0,.1-.2,0,0,0-.1-.1-.2-.2-.3-.4-.5-.7-.8-1.1,0-.1-.2-.2-.2-.3,0-.1-.3-.4-.4-.5-.1-.2,0-.3.1-.4l1.2-.8c.6-.4,1.2-.8,1.8-1.3.6-.4,1.2-.9,1.8-1.3.3-.2.7-.5,1-.7l1.4-1c.2-.1.3-.1.4,0,.3.4.7.9.9,1.2.2.3.3.4.4.6.2.2.2.4.1.4,0,0-.2,0-.4,0-.5,0-1.1,0-1.6.3-.3.2-.6.4-.9.6,0,0-.1.2,0,.2.3.5.7.9.9,1.3.1.2.3.4.4.6.4.5.8,1.1,1.2,1.7.3.4.5.7.8,1.1.2.3.3.5.5.7.3.5.6.7.9,1.2.5.7,1,1.3,1.5,2,.4.5,1.1.9,1.8,1,0,0,.1,0,0,.2Z" fill="#fff" stroke-width="0"/>
      <path d="M200.6,420.6c.2-.2.3-.3.3-.3,0,0,.4-.4.8-.8.4-.4.9-.8.9-.8.3-.3.7-.7,1-1,.3-.3.6-.6,1-1,0,0,0-.1,0,0-.6.2-.8.3-1.3.4-.5.1-1,.3-1.4.5,0,0-2,.7-2.2.7,0,0-.2,0-.4.1,0,0,0,0,0,0,0,0,0,.1,0,.2.2.3.4.6.5.8h0c.4.6.6,1,.8,1.2,0,0,.2,0,.2,0Z" fill="#fff" stroke-width="0"/>
      <path d="M280.9,520.3c.5.7,1.5.5,1.8-.2.2-.6.5-1.2,1-2-.3-1.5-.8-2.9-1.4-4.3-.5-.9-1-1.9-1.6-2.7-.5-.9-1.2-1.7-1.9-2.5-.7-.8-1.4-1.6-2.1-2.4-.8-.7-1.5-1.5-2.3-2.2-1.6-1.5-3.3-2.8-5-4.2-3.4-2.7-7-5.2-10.6-7.7-3.6-2.5-7.3-4.9-10.9-7.2,3.8,2.2,7.5,4.4,11.3,6.7,3.7,2.3,7.4,4.6,11,7.2,1.8,1.3,3.5,2.6,5.2,4,.9.7,1.7,1.5,2.5,2.2.8.8,1.6,1.6,2.3,2.4.7.8,1.5,1.7,2.1,2.6.7.9,1.3,1.9,1.8,2.9.5.9.9,1.9,1.3,2.9,2-2.4,5.2-5,10-7,2.8-1.2,6.8-2.2,9.7-3.9,0-.5,0-1-.1-1.5-.1-.7-.3-1.4-.6-2.1-.5-1.4-1.2-2.8-2.1-4.1-1.7-2.6-3.7-5-5.9-7.3-4.4-4.5-9.2-8.7-14-12.7,5.1,3.8,10.1,7.6,14.7,12,2.3,2.2,4.5,4.5,6.4,7.1.9,1.3,1.8,2.7,2.5,4.3.3.8.6,1.6.8,2.4,0,.2,0,.3,0,.5,1.3-1.2,2-2.7,1.7-4.7-.6-3.5-2.5-12.7-39.8-36.9-76.5-49.6-67.2-98.3-67.2-98.3,0,0-12.7,8-11.9,25.1-11.5-7.8-17.8-27.5-18.6-36.5-14.2,75.9,57.6,126,90.1,147.5,14.9,9.8,16.4,16.2,19.8,20.6ZM272.8,478c0-.1.2-.4.3-.5.1-.2.2-.2.4,0l1.2.8c.6.4,1.2.8,1.9,1.2.6.4,1.2.8,1.8,1.2.3.2.7.5,1,.6l1.4.9c.2.1.2.2.1.4-.3.4-.6,1-.8,1.3-.2.3-.3.4-.4.7-.2.2-.3.3-.3.3,0,0-.1-.2-.2-.3-.2-.5-.4-1-.9-1.4-.3-.2-.6-.4-.9-.6,0,0-.2,0-.2,0-.3.5-.6,1-.9,1.3-.1.2-.3.4-.4.6-.4.6-.7,1.1-1.1,1.7-.2.4-.5.7-.7,1.1-.2.3-.3.5-.4.7-.3.5-.5.8-.8,1.2-.4.7-.9,1.4-1.3,2.1-.4.6-.4,1.4-.3,2,0,0,0,.1-.1.1,0,0-.2,0-.2-.1-.5-.3-.9-.6-1.4-.9-.4-.3-.9-.5-1.3-.8h0c-.3-.2-.4-.3-.7-.4-.2-.2-.3-.3-.3-.3,0,0,.2-.1.3-.2.5-.2,1-.4,1.4-.9.4-.5.7-.9,1.1-1.5.4-.6.7-1.1,1.1-1.7.3-.5.7-1.1,1.1-1.8.2-.3.3-.5.4-.7.3-.5.5-.8.8-1.2.2-.4.5-.8.8-1.2.2-.2.3-.5.4-.7,0,0,0-.2,0-.3-.3-.2-.6-.4-.8-.5-.6-.4-1.4-.4-2.1-.3,0,0-.1,0-.1-.1,0,0,0-.2.1-.2.2-.4.5-.7.7-1.1,0-.1.1-.2.2-.3ZM264.5,471.7c0,0,0-.1.1-.1,0,0,.2,0,.2.1.4.2.7.5,1.1.8.1,0,.2.2.4.2.3.2.6.4.9.6.7.5,1.5,1.1,2.3,1.5.7.5,1.4.9,2.1,1.4.1,0,.2.1.3.2,0,0,0,0,0,0,0,0,0,0,0,.1,0,0,0,.1,0,.2-.2.3-.3.5-.5.7-.3.4-.5.8-.7,1.1,0,0,0,0,0,.1,0,0-.1.1-.2.2,0,0-.1,0-.2,0-.1-.6-.5-1.3-1-1.7-.5-.3-.9-.7-1.4-1-.2-.1-.4-.3-.6-.4-.2-.1-.3-.2-.5-.3,0,0-.2,0-.3,0,0,.1-.1.2-.2.3-.2.2-.3.5-.5.7-.4.7-.9,1.4-1.3,2,0,0,0,.2,0,.2.1,0,.3.2.4.3.3.2.6.4.9.6.3.2.6.4,1,.7,0,0,0,0,.1.1,0,0,0,.1,0,.2,0,0-.1.2-.2.3-.1.2-.3.4-.4.6,0,.1-.2.3-.3.4,0,0,0,0,0,.1,0,0,0,0,0,0,0,0-.1,0-.2,0,0,0-.2-.1-.3-.2-.5-.3-.9-.6-1.4-.9-.2-.2-.5-.3-.7-.5,0,0-.2,0-.3,0-.3.4-.5.8-.8,1.1-.3.5-.5.8-.9,1.4-.2.2-.3.5-.5.7,0,0,0,.2,0,.3.5.3.9.6,1.4,1,.5.3.9.5,1.4.8.6.3,1.1.3,1.6.3.2,0,.3,0,.4,0,0,0,0,.1,0,.3-.3.4-.4.6-.7,1.1-.1.2-.3.4-.4.7,0,0,0,0,0,.1,0,.1-.2.3-.3.4,0,0-.1.1-.2,0,0,0-.2,0-.2,0-.4-.3-.8-.5-1.2-.8-.4-.3-.8-.5-1.2-.8-.6-.4-.9-.6-1.4-.9-.2-.1-.4-.3-.6-.4,0,0,0,0,0,0,0,0-.2-.1-.3-.2-.1,0-.2-.1-.3-.2h0s-.6-.4-1-.7c0,0-.1,0-.2-.1-.4-.3-.6-.4-.9-.6-.2-.2-.3-.3-.3-.3,0,0,.2,0,.3-.1.5-.1,1-.4,1.4-.9.4-.5.7-.9,1.1-1.5.1-.2.3-.4.4-.6.4-.6.7-1.1,1.1-1.7.2-.4.5-.7.8-1.1.2-.3.3-.5.5-.7.3-.5.5-.8.8-1.2.5-.7.9-1.4,1.3-2.1.4-.6.4-1.4.3-2ZM210.7,414.3c.5,0,.9.2,1.2.6.3.6.3,1.2-.4,1.6-.2.1-.4.2-.6.2-.4,0-.8-.2-1-.6-.4-.6-.2-1.3.4-1.7.1,0,.3-.2.5-.2ZM208.3,411.5c.1,0,.3-.2.5-.2.5,0,.9.2,1.2.6.3.6.3,1.2-.4,1.6-.2.1-.4.2-.6.2-.4,0-.8-.2-1-.6-.4-.6-.2-1.3.4-1.7ZM190.6,414.8h0c0-.2-.2-.4-.3-.6,0-.2-.2-.3-.2-.5-.2-.3-.3-.6-.5-1,0-.1,0-.3,0-.4.7-.6,1.6-1.4,1.6-1.4.8-.7,1.6-1.4,2.5-2.1.2-.1,1.8-1.5,1.9-1.6.4-.4.8-.7,1.3-1.1.4-.4.7-.6,1.3-1.1,1.1-1,1.4-1.1,1.6-1.5.3-.4.4-.8.5-1.2,0,0,0-.1.2,0,0,0,0,.1.1.2.2.3.3.6.5.9.2.3.3.6.5.9,0,.2.2.4.3.5.1.2.3.5.4.7.1.2.2.5.4.7,0,0,0,0,0,.1,0,0,0,.2,0,.2,0,.1,0,.2-.1.1-.4,0-.8-.2-1.2-.2-.2,0-.4,0-.5.2-.3.1-.6.4-.9.7-.5.4-.9.7-1.4,1.1-.4.3-.7.7-1.2,1.1-.8.7-1.8,1.4-1.8,1.5-.4.3-.7.6-1.1.9-.1,0-.2.2-.3.3h-.2c-.1.2-.2.3-.2.3,0,0,0,0,.2,0,.1,0,.2,0,.3,0,0,0,.2,0,.3,0,.5-.1,1-.3,1.5-.4.6-.2,1.5-.4,2.2-.6.5-.1,1-.2,1.5-.4.6-.2,1.2-.3,1.8-.5.4-.1.8-.2,1.1-.4.2,0,.3-.2.4-.4.3-.3.4-.7.5-1.1,0,0,0-.1.2,0,0,0,.2.3.2.3.1.2.5.9.6,1.1.3.5.5,1,.8,1.5,0,0,0,0,0,.1,0,0,0,.2,0,.2,0,.1,0,.2-.1.1-.4,0-.7-.2-1.1-.3-.6,0-.9,0-2.4.4-.7.2-1.1.3-1.7.4-.5.1-1.1.3-1.6.4-.1,0-1.2.3-2.4.6-1.2.3-2.2.5-3.2.8-.1,0-1.2.3-2.1.6-.1,0-.3,0-.4-.2ZM198.6,427.9c0,0,0,.1-.2,0,0,0-.1-.1-.2-.2-.2-.3-.4-.6-.5-.9-.3-.6-.6-.9-1-1.6h0c-.1-.2-.2-.4-.3-.5-.2-.2-.3-.5-.4-.7,0,0,0,0,0-.1,0,0,0-.2-.1-.2,0-.1,0-.2.1-.1.4,0,.8.2,1.2.1.2,0,.3,0,.5-.2.3-.2.5-.4.9-.8,0,0,.3-.3.5-.5,0,0,0-.2,0-.3,0-.1-.2-.4-.7-1.2-.2-.3-.7-1.1-.9-1.5,0,0,0,0,0,0,0,0-.2-.1-.3-.1-.4.1-.6.2-.7.2-.4.2-.8.2-1.1.4-.2,0-.3.2-.4.4-.2.3-.3.7-.4,1.1,0,0,0,.1-.2,0,0,0-.2-.3-.2-.3-.2-.2-.6-.9-.7-1.2-.4-.6-.5-.8-.9-1.4,0,0,0,0,0-.1,0,0,0-.2-.1-.2,0-.1,0-.2.1-.1.4,0,.7.2,1.2.2.6,0,.9,0,2.4-.5.7-.2,1.1-.3,1.7-.5.5-.2,1.1-.4,1.6-.5,0,0,1.2-.4,2.4-.7.6-.2,1.1-.4,1.7-.5.5-.2,1-.3,1.5-.5.3-.1.6-.2.8-.3.1,0,.3-.2.4-.4,0-.2.2-.4.2-.6,0-.2.1-.3.2-.3,0,0,.1,0,.2.2.2.4.4.5.6,1,.1.2.2.3.3.5.1.2.2.4.3.6.2.3.4.6.7,1,.2.2.3.5.5.7.2.2.2.4.1.4,0,0-.2,0-.4,0-.3,0-.5,0-.7,0-.2,0-.3,0-.4.2-.2.1-.4.4-.7.6-.8.7-1.5,1.6-2.3,2.4-.2.2-1.7,1.7-1.7,1.7-.4.4-.8.8-1.2,1.2-.4.4-.7.7-1.2,1.2-1,1.1-1.3,1.2-1.5,1.7-.2.5-.3.9-.4,1.3ZM207.1,434.7c-.4.3-.5.4-.9.7-.2.2-.5.3-.7.5,0,0,0,0,0,0-.2.1-.3.2-.5.4,0,0-.1,0-.2,0,0,0-.1-.1-.2-.2-.3-.4-.6-.8-.9-1.2h0c-.3-.4-.6-.8-.8-1.1-.5-.6-.7-.9-1.1-1.5-.5-.6-.9-1.2-1.4-1.9-.3-.4-.6-.8-.9-1.2h0c-.1-.2-.1-.3,0-.3,0,0,.2,0,.4,0,.5,0,1.1,0,1.6-.3.5-.3,1-.6,1.5-1,.5-.4,1-.7,1.5-1,.6-.4,1.2-.9,1.9-1.4.3-.2.5-.3.6-.5.5-.3.7-.6,1.1-.9.6-.5,1.3-1,2-1.5.5-.4.8-1.2,1-1.8,0,0,0-.1.2,0,0,0,.1.1.2.2.3.3.5.7.8,1.1,0,.1.2.2.2.3h0c.3.4.5.7.8,1,.2.2.3.4.5.6.2.2.2.3.1.4,0,0-.2,0-.4,0-.3,0-.6,0-.8,0-.6.1-.8.4-1.4.8-.3.2-.5.3-.7.5-.6.5-1.2,1-1.9,1.4-.2.1-1.8,1.4-1.9,1.4-.4.3-.8.5-1.1.8-.5.3-.8.6-1.3,1l-.7.5c0,0-.1.2,0,.3.1.2.3.4.4.6.1.2.3.4.4.6.4.5.7,1,1.2,1.4.4.5.9.7,1.4.8.2,0,.3,0,.4.1,0,0,0,.1-.2.2ZM211,440.3c-.1,0-1.1.6-1.9,1-.1,0-.3,0-.4,0h0c-.1-.2-.3-.3-.4-.5-.1-.1-.2-.3-.3-.4-.2-.3-.5-.5-.7-.8,0-.1-.1-.3,0-.4.5-.7,1.3-1.7,1.3-1.7.7-.8,1.3-1.7,2-2.6.1-.2,1.5-1.9,1.5-1.9.3-.4.7-.9,1-1.3.3-.5.6-.8,1-1.4.9-1.2,1.1-1.4,1.3-1.9.2-.5.2-.9.2-1.3,0,0,0-.1.2,0,0,0,.1.1.2.2.2.2.4.5.6.7.2.3.4.5.6.8.1.2.3.3.4.5.2.2.4.4.5.6.2.2.3.4.5.6,0,0,0,0,0,.1,0,0,.1.1.1.2,0,.1,0,.2,0,.2-.4,0-.8,0-1.2,0-.2,0-.3.2-.5.3-.2.2-.5.5-.8.9-.4.5-.8.9-1.1,1.4-.3.4-.6.8-1,1.3-.7.8-1.4,1.7-1.5,1.8-.3.4-.6.7-.9,1.1,0,.1-.2.2-.3.3v.2c-.2.1-.3.2-.2.2,0,0,0,0,.2,0,.1,0,.2-.1.3-.2,0,0,.2,0,.2-.1.4-.2.9-.5,1.4-.7.6-.3,1.3-.7,2.1-1,.5-.2.9-.4,1.4-.7.5-.3,1.1-.6,1.7-.9.4-.2.7-.4,1-.6.1-.1.3-.3.4-.4.2-.4.2-.8.3-1.1,0,0,0-.1.2,0,.1,0,.2.2.3.3.2.2.6.8.8,1,.4.4.7.9,1.1,1.3,0,0,0,0,0,.1,0,0,.1.1.1.2,0,.1,0,.2,0,.2-.4,0-.7,0-1.2,0-.6,0-.8.2-2.2.9-.7.3-1,.5-1.6.7-.5.2-1,.5-1.5.7,0,0-1.2.6-2.3,1.1-1.1.5-2,.9-3,1.4ZM215.6,448.7c0,0,0,.1-.2,0,0,0-.1-.1-.2-.2-.4-.4-.7-.8-1.1-1.2-.4-.4-.7-.8-1.1-1.1-.2-.2-.3-.4-.5-.6-.2-.2-.3-.3-.2-.4,0,0,.2,0,.4,0,.5,0,1.1-.1,1.6-.5.5-.4.9-.7,1.4-1.2.2-.2.4-.3.5-.5.5-.5,1-.9,1.5-1.4.3-.3.7-.6,1-.9.2-.2.4-.4.6-.5.4-.4.7-.6,1.1-1,.6-.5,1.2-1.1,1.8-1.7.5-.5.7-1.2.8-1.9,0,0,0-.1.2,0,0,0,.1.1.2.2.3.3.6.7.9,1,0,.1.2.2.3.3.3.3.6.7,1,1,.2.2.3.4.5.6.2.2.3.3.2.4,0,0-.2,0-.4,0-.5,0-1.1.1-1.6.5-.5.4-.9.7-1.4,1.2-.5.4-.9.8-1.3,1.2-.5.5-1.1,1-1.7,1.6-.2.2-.4.4-.6.5-.4.4-.7.6-1.1,1-.6.5-1.2,1.1-1.8,1.7-.5.5-.7,1.2-.8,1.9ZM223.9,456.2c-.1.1-.3.3-.4.4,0,0-.1,0-.2,0,0,0-.1,0-.2-.1-.4-.4-.7-.7-1-1h0c-.3-.3-.7-.7-1-1-.5-.6-.8-.8-1.3-1.3-.5-.5-1.1-1.1-1.7-1.6-.4-.4-.7-.7-1.1-1.1h0c-.1-.1-.2-.2-.1-.3,0,0,.2,0,.4,0,.5,0,1.1-.2,1.6-.6.5-.4.9-.8,1.4-1.2.4-.4.9-.8,1.3-1.2.5-.5,1-1.1,1.6-1.7.2-.2.4-.4.6-.6.4-.4.6-.7,1-1,.6-.6,1.2-1.2,1.7-1.8.5-.5.7-1.3.7-1.9,0,0,0-.1.2,0,0,0,.1.1.2.2.3.3.6.6.9,1,0,0,.2.2.3.3h0c.3.3.6.6.9.9.2.2.3.4.5.6.2.2.3.3.2.4,0,0-.2,0-.4,0-.3,0-.5,0-.8.2-.6.2-.8.5-1.3,1-.2.2-.4.4-.7.6-.6.6-1.1,1.1-1.7,1.7-.2.2-1.6,1.6-1.7,1.7-.3.3-.7.6-1,1-.4.4-.7.7-1.2,1.2l-.6.6c0,0,0,.2,0,.3.2.2.3.3.5.5.2.2.3.3.5.5.5.5.9.8,1.3,1.2.5.4,1,.5,1.5.6.2,0,.3,0,.4,0,0,0,0,.1-.1.3-.3.3-.4.5-.8.8-.2.2-.4.4-.6.6,0,0,0,0,0,0ZM231.6,463.3c-.1.1-.3.3-.4.4,0,0-.1,0-.2,0,0,0-.1,0-.2-.1-.4-.3-.7-.6-1.1-1h0c-.3-.3-.7-.7-1-1-.6-.5-.8-.8-1.3-1.2-.6-.5-1.2-1-1.7-1.6-.4-.3-.8-.7-1.1-1h0c-.1-.1-.2-.2-.1-.3,0,0,.2,0,.4,0,.5,0,1.1-.2,1.5-.6.5-.4.8-.8,1.3-1.3.4-.4.8-.8,1.2-1.3.5-.5,1-1.1,1.6-1.7.2-.2.4-.4.5-.6.4-.4.6-.7,1-1.1.5-.6,1.1-1.2,1.6-1.8.4-.5.6-1.3.6-2,0,0,0-.1.2,0,0,0,.1.1.2.2.3.3.7.6,1,.9,0,0,.2.2.3.3h0c.3.3.6.6,1,.9.2.2.4.3.6.5.2.2.3.3.2.4,0,0-.2,0-.4,0-.3,0-.5,0-.8.2-.6.2-.8.6-1.2,1-.2.2-.4.4-.6.7-.5.6-1,1.2-1.6,1.8-.1.2-1.5,1.7-1.6,1.7-.3.3-.7.7-1,1-.4.4-.6.7-1.1,1.2l-.6.6c0,0,0,.2,0,.3.2.2.4.3.5.5.2.2.4.3.5.5.5.4.9.8,1.4,1.2.5.4,1,.5,1.6.5.2,0,.3,0,.4,0,0,0,0,.1-.1.3-.3.3-.4.5-.8.9-.2.2-.4.4-.6.6,0,0,0,0,0,0ZM237.8,463.7c-.5.6-1.1,1.3-1.6,1.9-.4.5-.6,1.3-.5,2,0,0,0,.1-.2,0,0,0-.1,0-.2-.2-.4-.4-.8-.7-1.2-1.1-.4-.3-.8-.7-1.2-1-.2-.2-.4-.3-.6-.5-.2-.2-.3-.3-.2-.4,0,0,.2,0,.4-.1.5,0,1-.3,1.5-.7.5-.4.8-.8,1.3-1.3.2-.2.3-.4.5-.5.4-.5.9-1,1.3-1.6.3-.3.6-.7.9-1,.2-.2.4-.4.5-.6.4-.4.6-.7.9-1.1.5-.6,1.1-1.3,1.6-1.9.4-.5.6-1.3.5-2,0,0,0-.1.2,0,0,0,.1,0,.2.2.3.3.7.6,1,.9.1,0,.2.2.3.3.4.3.7.6,1.1.9.2.2.4.3.6.5.2.2.3.3.2.4,0,0-.2,0-.4.1-.5,0-1,.3-1.5.7-.5.4-.8.8-1.3,1.3-.4.5-.8.9-1.2,1.4-.5.6-.9,1.1-1.5,1.8-.2.2-.4.4-.5.6-.4.4-.6.7-.9,1.1ZM243.2,473.4c-.3,0-.6-.1-.9-.2-.4-.2-.8-.4-1.1-.7h0c-.2-.2-.4-.4-.6-.6-1-1-1.7-2.4-1.4-4,.3-1.8,1.1-3.4,2.2-4.8.5-.6,1.1-1.2,1.7-1.8.7-.6,1.5-1.2,2.5-1.6.9-.3,1.8-.5,2.8-.2.8.2,1.5.5,2,.9.6.5,1,1.1,1.3,1.8.1.4.2.6.4.8.2.2.5.2,1.1,0,.2,0,.3,0,.4,0,0,0,0,.2,0,.4-.3.4-.7.9-1.1,1.4-.4.5-.8,1-1.1,1.3-.1.2-.2.3-.4.5,0,0,0,0,0,0,0,.1-.2.3-.3.2,0,0-.2-.1-.3-.2-.2-.2-.4-.3-.5-.4,0,0-.2-.1-.2-.2,0,0,0-.2.2-.6,0-.2.1-.4.2-.7.1-.4.2-.9.1-1.3,0-.5-.3-1-.7-1.3-.3-.2-.7-.4-1.1-.4-1,0-2,.5-2.7,1.1-.6.5-1.1,1.1-1.6,1.7-.1.2-.3.3-.4.5-.5.7-1,1.5-1.4,2.4-.4,1.1-.4,2.5.5,3.3.5.4,1.2.5,1.8.4.3,0,.7-.3,1-.6.3-.2.5-.6.8-.9,0-.1.2-.2.3-.4,0-.1.2-.2,0-.3-.2-.1-.3-.2-.4-.3-.1-.1-.3-.3-.4-.4-.1-.1-.3-.2-.4-.3,0,0-.1,0-.1-.1,0,0,0-.1,0-.2,0,0,.1-.2.2-.2,0,0,0,0,0-.1.1-.2.3-.3.4-.5,0-.1.2-.2.3-.4,0,0,0,0,0,0,0,0,0,0,0,0,0,0,0,0,.2,0,0,0,.2.1.2.2.3.3.7.5,1,.8.5.4,1,.8,1.5,1.2,0,0,.1.1.2.2h0c.2.1.1.2,0,.4l-.6.7c0,.1-.2.2-.3.3-.1.2-.2.3-.4.5-.5.6-.8.9-1,1.1-.7.6-1.1,1-1.9,1.3-.7.3-1.4.4-2.1.3ZM246.4,476.4c-.2-.2-.3-.3-.3-.3,0,0,.2,0,.3-.1.5-.1,1-.3,1.4-.8.4-.5.7-.9,1.1-1.4.3-.4.6-.8.9-1.2.5-.7.9-1.3,1.5-2.1.2-.2.3-.5.5-.6.3-.5.5-.8.8-1.2.5-.7,1-1.3,1.4-2,.4-.6.5-1.4.4-2,0,0,0-.1.2,0,0,0,.2,0,.2.1.3.3.7.5,1.1.8.1,0,.2.2.4.3.4.3.8.5,1.1.8.2.2.4.3.6.5.2.2.3.3.3.3,0,0-.2,0-.3.1-.5.1-1,.3-1.4.8-.4.5-.7.9-1.1,1.4-.1.2-.3.4-.4.6-.2.2-.4.5-.5.7,0,0,0,.2,0,.3.3.2.5.4.9.7.3.2.6.4.9.7.2.1.4.3.6.4,0,0,.2,0,.2,0,.2-.3.3-.5.5-.8.5-.6,1-1.3,1.4-2,.4-.6.5-1.4.4-2,0,0,0-.1.2,0,0,0,.2,0,.2.1.4.3.9.7,1.3,1,.4.3.8.6,1.3.9.2.2.4.3.6.5.2.2.3.3.3.3,0,0-.2,0-.3.1-.5.1-1,.3-1.4.8-.4.5-.7.9-1.1,1.4-.4.5-.7.9-1,1.3-.4.6-.9,1.3-1.4,2-.2.2-.3.5-.5.6-.3.5-.5.8-.8,1.2-.5.7-1,1.3-1.4,2-.4.6-.5,1.4-.4,2,0,0,0,.1-.2,0,0,0-.2,0-.2-.1-.3-.3-.7-.5-1.1-.8-.1,0-.2-.2-.4-.3-.4-.3-.8-.5-1.1-.8-.2-.2-.4-.3-.6-.5-.2-.2-.3-.3-.3-.3,0,0,.2,0,.3-.1.5-.1,1-.3,1.4-.8.4-.5.7-.9,1.1-1.4.1-.2.3-.4.4-.6.5-.6.9-1.2,1.4-1.9,0,0,0-.2,0-.3-.3-.2-.6-.4-.8-.6-.5-.4-1-.8-1.6-1.2,0,0-.2,0-.3,0,0,0,0,0,0,0-.2.2-.3.5-.5.6-.3.5-.5.8-.8,1.2-.5.6-1,1.3-1.4,2-.4.6-.5,1.4-.4,2,0,0,0,.1-.2,0,0,0-.2,0-.2-.1-.4-.3-.9-.7-1.3-1-.4-.3-.8-.6-1.3-.9h0c-.2-.2-.4-.3-.6-.5Z" fill="#fff" stroke-width="0"/>
      <path d="M575.3,450.3c-.3-.4-.7-.8-1-1.2-.6-.7-1.4-1.3-2.2-1.8-.7-.4-1.6-1-2.4-.9-.3,0-.6.2-.8.4-.3.3-.5.7-.4,1.2,0,.6.4,1.3.7,1.8.6,1,1.1,1.8,1.9,2.6,1.1,1.2,2.5,2.3,4.1,2.7.5,0,1,0,1.4-.3.5-.5.4-1.3.2-1.9-.3-1-.9-1.8-1.5-2.5Z" fill="#fff" stroke-width="0"/>
      <path d="M586,436.9c-.6-.6-1.3-1.1-2-1.5-.6-.4-1.5-.8-2.4-.8-1,0-1.4.7-2,1.4,0,0,0,0,0,0-.1.1-.2.2,0,.4,0,0,.2.2.2.2.2.2.4.3.5.5.3.2.5.5.8.7.4.4.8.7,1.3,1.1.1.1.4.3.6.5.7.6,1.7,1.5,1.8,1.6.1.1.4.4.5.5.4.4.7.6,1.2,1.1,0,0,.1.1.2.2.2.1.4.3.5.3.2,0,.3,0,.4-.2.2-.2.3-.3.5-.5.4-.5.7-1,.7-1.6,0-.9-.5-1.6-1-2.2-.5-.6-1.1-1.2-1.7-1.7Z" fill="#fff" stroke-width="0"/>
      <path d="M598.1,418.9s1-23.8-2-30.7c0,0,0,0,0,0-5.8,18.8-21.8,46.1-64.4,73.7-37.3,24.2-39.3,33.4-39.8,36.9-.3,2,.4,3.5,1.7,4.7,0-.2,0-.3,0-.5.2-.8.5-1.6.8-2.4.7-1.5,1.5-2.9,2.5-4.3,1.9-2.6,4.1-4.9,6.4-7.1,4.6-4.4,9.7-8.2,14.7-12-4.9,4-9.7,8.2-14,12.7-2.2,2.3-4.2,4.7-5.9,7.3-.8,1.3-1.6,2.7-2.1,4.1-.3.7-.5,1.4-.6,2.1,0,.5-.1,1-.1,1.5,2.9,1.7,6.9,2.7,9.7,3.9,4.8,2.1,7.9,4.7,10,7,.4-1,.8-1.9,1.3-2.9.6-1,1.1-2,1.8-2.9.6-.9,1.4-1.8,2.1-2.6.7-.8,1.6-1.6,2.3-2.4.8-.7,1.6-1.5,2.5-2.2,1.7-1.4,3.5-2.7,5.2-4,3.6-2.6,7.3-4.9,11-7.2,3.7-2.3,7.5-4.5,11.3-6.7-3.7,2.4-7.3,4.8-10.9,7.2-3.6,2.5-7.2,5-10.6,7.7-1.7,1.3-3.4,2.7-5,4.2-.8.7-1.5,1.5-2.3,2.2-.7.8-1.5,1.6-2.1,2.4-.7.8-1.3,1.7-1.9,2.5-.6.9-1.1,1.8-1.6,2.7-.6,1.4-1.1,2.8-1.4,4.3.4.7.8,1.4,1,2,.3.8,1.3.9,1.8.2,3.3-4.5,4.9-10.8,19.8-20.6,29-19.2,89.5-61.3,91.8-124.3-6.1,27.7-33.1,43.5-33.1,43.5ZM569.1,464.2c0,0-.1.1-.2.2-.5.4-.9.8-1.4,1.1-.4.4-.9.7-1.3,1.1h0c-.3.2-.4.3-.7.5-.2.2-.4.3-.4.2,0,0,0-.2,0-.4,0-.6,0-1.1-.4-1.6-.3-.5-.7-.9-1.1-1.5-.4-.5-.9-1.1-1.3-1.6-.4-.5-.9-1-1.3-1.6-.1-.1-.2-.3-.3-.4h0c0-.1-.1-.2-.2-.2,0,0,0,.1,0,.3,0,.1,0,.2.1.4,0,.2.1.3.2.5.2.5.5,1.5.7,2,0,.2.4,1.1.5,1.3.3.7.3.6.5,1.3.2.4.3.8.5,1.3,0,0,.1.3.2.6,0,.2.2.5.3.7,0,.1,0,.3-.1.4h-.1c-.1.2-.3.2-.4.2-.2-.1-.4-.2-.7-.4-.2-.1-2-1.2-2.1-1.3-.5-.3-1-.6-1.5-.8-.5-.3-.8-.5-1.5-.9-.4-.2-.8-.4-1.1-.6-.2-.1-.4-.2-.6-.3-.1,0-.2,0-.2,0,0,0,0,.1.1.2,0,.1.2.2.3.3.2.3.5.6.7.8.2.2.4.4.5.6.4.4.6.7.9,1.1.5.6,1.1,1.3,1.6,1.9.5.5,1.2.8,1.9.8,0,0,.1,0,0,.2,0,0-.1.1-.2.2-.4.3-.8.7-1.2,1-.4.3-.8.7-1.2,1h0c-.2.1-.3.2-.3.1,0,0,0-.2,0-.4,0-.6,0-1.1-.4-1.6-.3-.5-.7-.9-1.1-1.5-.2-.2-.3-.4-.5-.6-.4-.5-.9-1-1.3-1.6-.3-.3-.6-.7-.9-1.1-.2-.2-.4-.4-.5-.6-.4-.4-.6-.7-.9-1.1-.5-.6-1.1-1.3-1.6-1.9-.5-.5-1.2-.8-1.9-.8-.1,0-.1,0,0-.2,0,0,.1-.1.2-.2.5-.4,1-.8,1.5-1.3.2-.2.5-.4.7-.6,0,0,.2-.1.3-.2.1-.1.3-.1.4,0,.4.2.8.5,1.1.7.5.3.9.5,1.1.7.6.4,1.2.7,1.7,1,.4.2.8.4,1.3.7.2.1.4.2.7.4.2,0,.3.2.5.3.2.1.5.3.6.3,0,0,0-.1,0-.3,0-.2-.1-.4-.2-.6-.2-.5-.4-1-.6-1.6,0,0-.5-1.1-.9-2.3-.2-.6-.5-1.3-.8-1.9,0,0,0-.2,0-.2,0-.1-.2-.4-.2-.6,0-.1,0-.3.1-.4.2-.1.3-.3.5-.4.1-.1.2-.2.4-.3.4-.3.8-.7,1.2-1,.3-.2.4-.3.7-.5.2-.2.4-.3.4-.2,0,0,0,.2,0,.4,0,.6,0,1.1.4,1.6.3.5.7.9,1.1,1.5.2.2.3.4.5.6.4.5.9,1,1.3,1.6.3.3.6.7.9,1.1.2.2.4.4.5.6.4.4.6.7.9,1.1.5.6,1.1,1.3,1.6,1.9.5.5,1.2.8,1.9.8,0,0,.1,0,0,.2ZM579.4,453.7c-.3,1-.8,1.8-1.5,2.5h0c-.7.7-1.7,1.2-2.9,1.3-1.6.2-2.8-.2-3.9-.8-1-.6-1.9-1.3-2.7-2.1-.4-.5-.9-.9-1.2-1.5-.4-.6-.8-1.3-1-2.1-.2-.7-.4-1.3-.4-2,0-1.4.6-2.8,1.6-3.8.3-.3.6-.5,1-.8,1.8-1.1,3.8-.7,5-.1.9.4,1.8,1,2.5,1.7.3.3.6.6.9.8.4.4.8.9,1.1,1.3.5.6.9,1.4,1.1,2.2.3.9.5,2.1.2,3.2ZM590.9,441.9c-.3.6-.9,1.3-1.7,2.3h0c-.4.5-1,1.1-1.6,1.7-.4.5-.8,1-1.2,1.4,0,0,0,0-.1.1,0,0-.1.1-.2.2-.1,0-.2,0-.2,0,0-.7-.3-1.5-.8-1.9-.5-.5-1.1-1-1.7-1.5-.4-.4-.7-.6-1.2-1-.2-.2-.4-.3-.7-.6-.2-.1-.3-.3-.5-.4-.5-.4-.9-.8-1.3-1.2-.4-.4-.9-.7-1.3-1.1-.5-.4-.9-.8-1.4-1.1-.5-.4-1.1-.5-1.6-.4-.2,0-.3,0-.4,0,0,0,0-.1.1-.3.2-.3.4-.5.6-.7.3-.4.6-.7,1-1.1.4-.4.7-.8,1.1-1.3.1-.1.3-.3.4-.4.6-.7,1.2-1.4,1.9-1.9,1.7-1.2,3.4-.8,4.6-.2.5.2,1,.5,1.4.8.6.4,1.1.8,1.6,1.3,1,.9,1.9,1.8,2.6,2.9.7,1.1,1.4,2.8.5,4.6Z" fill="#fff" stroke-width="0"/>
      <g>
        <path d="M465.9,297.4c1,.2,1.6,1,1.7,2,.2,2.7,2.2,4.8,4.5,4.8s4.4-2.1,4.5-4.8c0-1,.8-1.8,1.7-2,9.3-2.1,19.1-3.5,29.1.4h0v-48.5c-1.3-.6-2.6-1.1-4-1.5v42.4c0,1.5-1.8,2.9-3.4,1.9-3.4-2.2-7-3.3-11.1-3.3s-10.5,1.7-16.1,3.5h0c-.4.1-.9.1-1.3,0-5.6-1.8-10.9-3.5-16.1-3.5s-7.7,1.1-11.1,3.3c-1.3.8-3.3.2-3.4-1.9v-42.4c-1.4.4-2.7.9-4,1.5v48.5c9.9-3.9,19.8-2.5,29.1-.4Z" fill="#fff" stroke-width="0"/>
        <path d="M353.1,354.7c-1.1,0-1.9.8-1.9,1.9s.8,1.9,1.9,1.9,1.9-.8,1.9-1.9-.8-1.9-1.9-1.9Z" fill="#fff" stroke-width="0"/>
        <path d="M499,286.6v-47.3c-3.1-1.8-6.4-2.7-10.1-2.7s-9.6,1.4-14.6,3v47.7c4.8-1.5,9.6-2.8,14.6-2.8s7,.7,10.1,2.1ZM480.3,244.6c5.5-1.5,9.2-1.8,12.6-.9,1.2.3,1.9,1.5,1.6,2.7-.3,1.2-1.5,1.9-2.7,1.6-2.7-.7-5.7-.4-10.4.9-1.2.3-2.4-.4-2.7-1.6-.3-1.2.4-2.4,1.5-2.7ZM480.3,254.1c5.5-1.5,9.2-1.8,12.6-.9,1.2.3,1.9,1.5,1.6,2.7-.3,1.2-1.5,1.9-2.7,1.6-2.7-.7-5.7-.4-10.4.9-1.2.3-2.4-.4-2.7-1.6-.3-1.2.4-2.4,1.5-2.7ZM480.3,263.7c5.5-1.5,9.2-1.8,12.6-.9,1.2.3,1.9,1.5,1.6,2.7-.3,1.2-1.5,1.9-2.7,1.6-2.7-.7-5.7-.4-10.4.9-1.2.3-2.4-.4-2.7-1.6-.3-1.2.4-2.4,1.5-2.7ZM481.5,277.6c-1.2.3-2.4-.4-2.7-1.5-.3-1.2.4-2.4,1.5-2.7,5.5-1.5,9.2-1.8,12.6-.9,1.2.3,1.9,1.5,1.6,2.7-.3,1.2-1.5,1.9-2.7,1.6-2.7-.7-5.7-.4-10.4.9Z" fill="#fff" stroke-width="0"/>
        <path d="M469.9,287.2v-47.7c-5-1.6-9.8-3-14.6-3s-7,.9-10.1,2.7v13.7h8.6c1.2,0,2.2,1,2.2,2.2s-1,2.2-2.2,2.2h-8.6v4.6h4.2c1.2,0,2.2,1,2.2,2.2s-1,2.2-2.2,2.2h-4.2v20.3c3.1-1.4,6.5-2.1,10.1-2.1s9.8,1.3,14.6,2.8Z" fill="#fff" stroke-width="0"/>
        <polygon points="331.9 429.3 357.2 429.3 362.5 385.3 326.5 385.3 331.9 429.3" fill="#fff" stroke-width="0"/>
        <rect x="316.8" y="373.8" width="55.5" height="7.7" rx="1" ry="1" fill="#fff" stroke-width="0"/>
        <path d="M547.5,222l-.2-3-3-.2c-6.3-.4-13.4-1.9-19.4-4-8.8-3.1-15.6-7.7-19.6-13.2l-.5-.7-.7-.4c-32.4-17-61.5-26.5-86.5-28.3l-2.2-.2-1.1,1.9c-2,3.3-6.5,9-14,9s-12-5.6-14-9l-1.1-1.9-2.2.2c-25,1.8-54.1,11.3-86.5,28.3l-.7.4-.5.7c-4,5.5-10.7,10.1-19.6,13.2-6,2.1-13.1,3.6-19.4,4l-3,.2-.2,3c-2.2,29.2-2,56.9.7,82.3,3,29,9.3,56,18.5,80.3,24.4,64,69.5,109.6,127,128.3l1.1.4,1.1-.4c57.5-18.7,102.6-64.3,127-128.3,9.3-24.3,15.5-51.3,18.5-80.3,2.7-25.5,2.9-53.2.7-82.3ZM432.4,248c0-.8.5-1.6,1.2-2,2.3-1.2,4.7-2.1,7.2-2.7v-5.3c0-.8.4-1.5,1-1.9,4.1-2.7,8.6-4,13.5-4s11.4,1.8,16.8,3.5c5.5-1.8,11.1-3.5,16.8-3.5s9.4,1.3,13.5,4c.6.4,1,1.1,1,1.9v5.3c2.5.6,4.9,1.5,7.2,2.7.7.4,1.2,1.1,1.2,2v53.3c0,1.7-1.7,2.7-3.2,2-8.8-4.5-17.5-4.1-27.8-1.8-1,4.2-4.5,7.2-8.7,7.2s-7.7-3.1-8.7-7.2c-10.3-2.3-19-2.7-27.8,1.8-1.4.7-3.1-.2-3.2-2v-53.3ZM376.1,380.5c0,2.6-2.2,4.8-4.8,4.8h-4.9l-5.6,46.2c-.1,1-.9,1.7-1.9,1.7h-28.7c-1,0-1.8-.7-1.9-1.7l-5.6-46.2h-4.9c-2.6,0-4.8-2.2-4.8-4.8v-5.7c0-2.6,2.2-4.8,4.8-4.8h45v-9.6c0-1.1-.8-1.9-1.9-1.9h-2.2c-.8,2.2-2.9,3.8-5.4,3.8s-5.7-2.6-5.7-5.7,2.6-5.7,5.7-5.7,4.6,1.6,5.4,3.8h2.2c3.1,0,5.7,2.6,5.7,5.7v9.6h4.8c2.6,0,4.8,2.2,4.8,4.8v5.7ZM521.7,382.1c-23.5,61.6-66.6,105.5-121.5,123.8v-175.7h-135.8c-5.8-31.7-7.4-66.8-4.7-104.7,6.1-.7,12.6-2.1,18.2-4.1,10-3.5,17.5-8.6,22.4-15,30.4-15.8,57.6-24.9,81-27,4.7,6.7,11.5,10.5,18.9,10.5h0v140.3h135.8c-3.4,18.4-8.1,35.8-14.3,51.9Z" fill="#fff" stroke-width="0"/>
      </g>
    </g>
    <g>
      <path d="M43.3,633.2h14.9c4.1,0,8.2,0,12.4.1,4.2,0,8.1.2,12,.5,3.8.2,7.3.5,10.6.9,3.2.4,5.9.8,8.1,1.4,3.2,1,6.2,2.4,9,4.5s5.4,4.4,7.8,7.1c.9,1.1,2,2.6,3.2,4.5,1.2,1.9,2.3,4,3.3,6.5,1.1,2.4,1.9,5.1,2.6,7.9.7,2.9,1.1,5.8,1.1,8.9,0,7.2-1.4,13.7-4.1,19.6-2.7,5.8-6.6,11.1-11.7,16-.2.1-.6.4-1.1.7-.5.4-1,.8-1.5,1.2-.5.4-1,.8-1.5,1.2-.5.4-.8.6-1,.8-1,.8-2.1,1.5-3.5,2.2-1.4.7-2.9,1.3-4.6,1.9-1.7.6-3.4,1.1-5.2,1.6-1.8.5-3.6.9-5.3,1.2-1.7.3-3.4.6-4.9.8-1.5.2-2.9.3-4,.3-1.6,0-3.3,0-5-.2-1.7-.1-3.7-.2-5.9-.2h-27.7c-1.3,0-2-.4-2-1.3s.4-.9,1.3-1.2c.9-.3,1.9-.6,3.2-.7,1.2-.2,2.6-.4,4-.5,1.4-.1,2.7-.3,3.8-.5.8-.2,1.5-.4,1.9-.7.4-.3.7-.7.9-1,.2-.9.3-1.6.4-2.1,0-.5,0-1.1,0-1.8v-75.4c-.1-.3-.7-.6-1.6-.8-.9-.2-2-.5-3.3-.7s-2.7-.4-4.2-.6c-1.5-.2-2.9-.4-4.1-.6-.7,0-1-.3-1-.6s.2-.3.7-.6c.2,0,.4-.1.7-.2.3,0,.8,0,1.3,0ZM69.1,637.7v34.8c0,2.5,0,4.9-.2,7.3-.1,2.3-.3,4.6-.4,6.8-.1,2.2-.3,4.5-.4,6.7-.1,2.2-.2,4.5-.2,6.8,0,5.2.3,9.2.9,12,.6,2.8,1.4,4.8,2.5,6,.5.7,1.2,1.1,2.1,1.3.9.2,1.8.3,2.5.3,3.2,0,6.3-.4,9.2-1.2,2.9-.8,5.6-2,8-3.4,2.5-1.4,4.7-3.1,6.6-5.1,2-1.9,3.6-4,5-6.3,2.9-4.6,5-9.2,6.4-13.9,1.4-4.6,2.1-9.1,2.1-13.3s-.2-4.5-.5-6.6c-.4-2.1-.8-4-1.3-5.8-.5-1.8-1-3.3-1.6-4.7-.6-1.4-1.1-2.4-1.5-3.2-.6-1.1-1.5-2.5-2.6-4.1-1.1-1.6-2.6-3.2-4.3-5-1.8-1.7-3.9-3.4-6.4-5-2.5-1.6-5.5-3-9-4.2-2.1-.8-4.3-1.3-6.4-1.6-2.1-.3-4.5-.4-7.1-.4s-.6,0-1,0c-.4,0-.8.1-1.1.2-.3.1-.6.3-.9.6-.2.3-.4.6-.4,1Z" fill="#fff" stroke-width="0"/>
      <path d="M159.5,691.6l10.6-.4c1.7-.1,2.9-.5,3.8-1.2.9-.7,1.5-1.5,2-2.5.4-1,.8-2,1-3.2.2-1.2.6-2.3,1-3.4.1-.5.3-.7.6-.7.6,0,.9.1.9.4v2.5c0,1.7,0,3.4-.2,5.4-.1,1.9-.2,3.6-.2,4.9s.1,2.7.3,4.2c.2,1.5.3,3,.3,4.6s0,.5,0,1c0,.5-.1.9-.2,1.4,0,.5-.2.9-.3,1.3-.1.4-.3.6-.6.6-.5,0-.7-.2-.8-.7-.1-.4-.2-.8-.3-1.2,0-.5-.2-1.1-.4-1.8-.2-.7-.4-1.4-.7-2.1-.2-.7-.5-1.4-.7-2-.2-.6-.4-1-.4-1.2-.4-.7-1.1-1.3-2.2-1.8-1.1-.4-2.3-.8-3.6-1-1.3-.2-2.7-.4-4.2-.4-1.4,0-2.7,0-3.7,0h-1.9c-.7,0-1.1.1-1.2.4-.2.3-.2.7-.2,1.3v21.8c0,1.2.4,2,1.2,2.4h18.8c.8,0,1.7,0,2.6,0,.9,0,1.5-.1,1.8-.3.6-.2,1.1-.5,1.6-1.1.4-.6.8-1.1,1.1-1.6.1-.2.4-.6.7-1.3.4-.7.7-1.4,1.1-2.1.4-.8.8-1.5,1.1-2.1.4-.7.6-1.1.8-1.3.2-.5.7-.7,1.2-.7s.6.1.8.4v9.2c0,.4,0,.7,0,1s-.1.7-.2,1.1c-.2.6-.4,1-.6,1.1-.2.2-.7.4-1.4.5-4.2,0-8.1,0-11.9,0-3.7,0-7.5,0-11.4,0-3.8,0-7.9,0-12.1,0-4.3,0-9,0-14.3,0s-1.1-.4-1.1-1.1.2-.8.7-1.1c.5-.2.9-.4,1.2-.5.2,0,.7,0,1.2,0,.6,0,1.2,0,1.8,0,.7,0,1.3,0,1.9,0,.6,0,1.2,0,1.6,0,1,0,1.5-.8,1.5-2.4v-45.7c0-.7,0-1.6-.2-2.6-.1-1-.4-1.9-.8-2.6l-.4-.3-8.7-.9c-.8,0-1.2-.4-1.2-1.2s0-.5.1-.8c0-.3.4-.5.8-.5h10.2c4,0,7.9,0,11.7,0,3.8,0,7.4,0,10.6,0h8.8c.7,0,1.4,0,2.1,0,.7,0,1.4,0,2.1,0,.7,0,1.3,0,1.8,0,.5,0,.9,0,1.2,0,.3,0,.5.2.7.4.2.2.3.5.3.9,0,.4.1.7.1,1.1,0,.4,0,.6,0,.8v10.1c0,.4-.1.6-.4.6-.5,0-.8-.3-1-.9-.2-.6-.6-1.3-1-2.1-.4-.9-.8-1.8-1.4-2.7-.5-.9-.9-1.6-1.2-2.1-.4-.7-.9-1.2-1.7-1.6-.8-.4-1.6-.7-2.6-.9-1-.2-1.9-.4-2.9-.5-1-.1-1.9-.3-2.6-.4-.2,0-.9,0-1.9,0-1,0-2.2,0-3.5,0-1.3,0-2.6,0-3.8,0-1.3,0-2.2,0-2.9,0s-1.4.2-1.6.7c-.2.5-.3,1.2-.3,2.2v22.1c0,.4.1.7.4,1,.3.3.6.5,1.1.5Z" fill="#fff" stroke-width="0"/>
      <path d="M208.7,715.7v-46.4c0-.4,0-.9,0-1.4,0-.5-.2-1-.3-1.4-.1-.5-.4-.9-.7-1.2-.3-.4-.7-.6-1.1-.7-.5-.1-1.1-.2-1.7-.3-.6,0-1.3-.2-1.9-.2-.6,0-1.2-.1-1.8-.2-.6,0-1-.2-1.4-.3-.5-.1-.7-.4-.7-.9s.3-.9.9-.9h2.6c1.4,0,2.9,0,4.4.3,1.5.2,3,.3,4.6.3,2.7,0,5.2-.1,7.5-.3,2.3-.2,4.6-.3,7-.3s1.9,0,3.1,0,2.4,0,3.6.2c1.2,0,2.3.1,3.4.2,1.1,0,1.8.2,2.3.2,2.1.2,4.1.8,5.8,1.7,1.7.9,3.1,2.1,4.3,3.5,1.2,1.4,2.1,3.1,2.7,5,.6,1.9.9,3.9.9,6s-.3,3.4-.9,4.7c-.6,1.3-1.5,2.5-2.5,3.5-1.1,1-2.3,1.8-3.7,2.5-1.4.7-3,1.2-4.6,1.7-.3,0-.4.3-.4.6s0,.3.3.4c.2.1.4.2.6.3,2.3.9,4.1,1.7,5.6,2.6,1.4.9,2.8,2.1,4,3.6.8,1,1.5,2.2,2,3.5.5,1.3.7,2.7.7,4.1s-.3,3.8-.9,5.7c-.6,1.9-1.5,3.7-2.8,5.2-1.7,2.1-3.6,3.6-5.8,4.4-2.2.8-4.6,1.2-7.2,1.2s-2.2,0-3.5,0c-1.3,0-2.7,0-4,0h-28.8c-1,0-1.5-.4-1.5-1.2s.5-1.3,1.5-1.6c1.2-.3,2.4-.5,3.5-.6,1.1,0,2.2-.2,3.3-.4.9-.2,1.4-.6,1.6-1.3.2-.7.3-1.3.3-1.9ZM218.9,689.1c0,.5.5.8,1.4.8s1.3,0,2.3,0c1,0,2.1,0,3.2-.2,1.1,0,2.2-.1,3.2-.2,1.1-.1,1.9-.2,2.5-.3,1.5-.4,2.7-1,3.7-1.8,1-.8,1.8-1.7,2.4-2.8.6-1.1,1.1-2.3,1.3-3.6s.4-2.7.4-4.2-.4-3.8-1.1-5.5-1.8-3-3.1-4.1c-1.3-1.1-2.9-2-4.8-2.6-1.9-.6-3.9-.9-6.1-.9h-1.9c-1,0-1.8.2-2.5.5s-1,.9-1,1.7v23.2ZM218.9,693.5v24.5c0,.6.3,1.1.9,1.6.6.4,1.2.7,1.9.7h3.3c1.9,0,3.6,0,5-.2,1.4-.1,2.6-.4,3.7-.9s2-1,2.9-1.7c.8-.7,1.7-1.7,2.5-2.9,1.2-1.7,2-3.1,2.2-4.4.2-1.3.4-2.6.4-3.9s0-1.4-.1-2.1c0-.7-.2-1.5-.3-2.2-.1-.7-.3-1.4-.5-2-.2-.6-.4-1.1-.7-1.6-1.1-1.7-2.2-3-3.4-4s-2.4-1.7-3.7-2.1c-1.3-.5-2.6-.8-3.9-.9-1.3-.1-2.6-.2-3.9-.2h-4.6c-1.1,0-1.6.8-1.6,2.4Z" fill="#fff" stroke-width="0"/>
      <path d="M257.9,720.9c0-.2.1-.4.3-.7.2-.3.6-.5,1-.5.7,0,1.4-.1,2.1-.3.8-.2,1.5-.5,2.2-1,.7-.4,1.4-1,2-1.7.6-.7,1.2-1.5,1.6-2.4l16.4-38.9c0,0,.1-.3.3-.6.1-.3.2-.6.2-.8,0-.5-.1-.9-.3-1.4-.2-.5-.4-.9-.7-1.3-.3-.4-.5-.7-.7-1.1-.2-.3-.3-.6-.3-.8,0-.4.1-.7.4-1s.6-.4,1-.6c.4-.1.8-.2,1.3-.3.5,0,.8-.1,1.2-.2.4-.2.8-.4,1.2-.8.5-.4.8-.7,1.1-1,.1-.2.2-.5.3-.8,0-.3.2-.6.3-.9.1-.3.2-.5.4-.7s.4-.3.8-.3c.8,0,1.3.4,1.5,1.1l17.7,53c.2.8.5,1.4.8,1.8s.7.8,1.1,1c.5.2,1,.3,1.5.4.6,0,1.2,0,2,0h2.2c.4,0,.7,0,.9.1.2,0,.4.1.7.4.3.3.4.5.4.7,0,.7-.4,1-1.1,1.1,0,0-.4.1-.9.1h-3.5c-1.2,0-2.6,0-4.2-.2-1.6-.1-3.1-.2-4.7-.2-2.6,0-5,0-7.4.2-2.4.1-4.5.2-6.4.2s-.4,0-.7-.1c-.2,0-.3-.2-.3-.5s.1-.5.3-.7c.2-.2.5-.5.7-.7.3-.2.6-.4,1-.5.4-.1.7-.2,1-.2.4,0,.8,0,1.2,0,.4,0,.9,0,1.4,0,1.3,0,2.4-.1,3.2-.4.7-.2,1.1-.7,1.1-1.5s0-.2,0-.3c0-.1,0-.3-.1-.6-.2-.4-.4-1.1-.8-2.1-.4-1-.8-2.1-1.2-3.3-.4-1.2-.8-2.4-1.2-3.5s-.7-2-.9-2.6c-.2-.4-.3-.7-.5-1.1-.2-.4-.5-.5-1-.5h-17.4c-1,0-1.7.5-2,1.5l-2.5,9c0,.3-.1.5-.2.7,0,.2,0,.5,0,.9,0,.7,0,1.2.2,1.6.1.4.3.7.5,1,.2.2.5.4.9.5.4.1.9.2,1.5.3.2,0,.5,0,1,0,.5,0,1,.1,1.5.2.5,0,1,.2,1.5.2.5,0,.8,0,1,0,.2,0,.5.3.9.6.4.3.6.7.6,1s0,.4-.2.6c-.2.2-.5.3-.9.3h-1.9c-.7,0-1.6,0-2.7,0-1.1,0-2.3,0-3.4,0s-2.5,0-4,0c-1.6,0-3.2,0-4.8,0s-.6,0-1.2,0c-.6,0-1.2-.2-1.9-.3-.6-.1-1.2-.3-1.7-.6-.5-.2-.7-.5-.7-.8ZM277,698.5c0,0,0,.3,0,.7v.3c0,.5.1.8.4,1.1.3.3.6.5,1.1.5,2.5,0,4.9,0,7.2.3,2.3.2,4.4.3,6.5.3s.8-.1,1.1-.4c.2-.3.4-.5.4-.8v-.7c0,0,0-.2,0-.2,0-.1-.1-.3-.2-.6l-6.6-18.8c-.3-.9-.7-1.3-1.2-1.3s-.4,0-.7.2c-.2.2-.4.3-.5.5l-7.3,19Z" fill="#fff" stroke-width="0"/>
      <path d="M331.7,721.6c0-.6.2-1.1.7-1.3.5-.3,1-.5,1.6-.7.2,0,.6,0,1.1,0,.5,0,1.1,0,1.6-.1.6,0,1.1,0,1.6-.1.5,0,.8,0,1.1,0,.8,0,1.2-.5,1.2-1.2v-48.6c0-.1,0-.3,0-.6,0-.3,0-.6,0-.9,0-.3,0-.7-.1-1,0-.3,0-.6-.1-.7,0,0,0-.2,0-.4,0-.2-.2-.3-.4-.4-.1,0-.3,0-.6,0-.3,0-.6,0-.9,0s-.6,0-.9,0-.5,0-.6,0h-2.4c-.7,0-1.4,0-2.2,0-.8,0-1.6,0-2.3.2-.8,0-1.5.1-2.1.2-.6.1-1.1.2-1.5.4-.7.3-1.4.9-2.1,1.8-.7.9-1.4,1.8-2.1,2.8-.7,1-1.3,1.8-2,2.6-.6.7-1.2,1.1-1.8,1.1-.9,0-1.3-.5-1.3-1.4v-.3c.5-1.5.9-3.1,1.4-4.6s.9-3.1,1.3-4.6c0-.4.2-1,.3-1.8.1-.8.3-1.6.5-2.5.2-.8.5-1.6.9-2.2s.9-1,1.5-1,.9.2,1.2.6c.3.4.5.8.8,1.4.2.5.5,1,.8,1.5.3.5.7.8,1.2.9,1.7.2,3,.3,4.1.3,1.1,0,2.2,0,3.3,0h2.6c4.3,0,8.5,0,12.6-.2s8.3-.2,12.6-.2h3.2c.8,0,1.3-.3,1.5-.9,0-.1.2-.3.3-.7.1-.3.2-.7.3-1,.1-.4.2-.7.3-1.1.1-.4.2-.6.3-.7.2-.2.4-.4.7-.4s.5,0,.7,0c.4,0,.6,0,.8,0,.1,0,.3.2.5.4.6,1,1.1,2,1.5,3.1.4,1.1.7,2.3,1.1,3.5.3,1.2.7,2.3,1,3.5.3,1.2.7,2.2,1.2,3.2,0,.2.2.4.4.7.2.3.3.5.5.8s.3.5.5.7c.1.2.2.4.3.4,0,.2.1.5.3,1,.1.5.2.9.2,1.3s0,.4-.2.4c-.8,0-1.7-.3-2.6-1-.9-.6-1.9-1.4-2.8-2.2-.9-.8-1.8-1.7-2.7-2.5-.9-.8-1.7-1.5-2.4-2-.5-.3-1.1-.5-2-.8-.9-.2-1.8-.4-2.8-.6-1-.2-1.9-.3-2.9-.4-.9,0-1.6-.1-2.1-.1h-1.2c-.4,0-.8,0-1.2,0-.4,0-.8.1-1.2.2s-.7.3-.9.6c-.2.2-.4.6-.4,1v32.5c0,1.9,0,3.7-.2,5.4-.1,1.7-.2,3.3-.2,4.7s0,1.2,0,2c0,.9,0,1.8,0,2.7,0,.9,0,1.8.2,2.6,0,.8.1,1.4.2,1.9h7.4c.6,0,1.2.2,1.8.7.6.4.9,1,.9,1.7s0,.5-.1.8c0,.3-.2.5-.5.5h-29.2c-.5,0-.7,0-.8-.2,0-.1,0-.4,0-.8Z" fill="#fff" stroke-width="0"/>
      <path d="M395.4,721.6c0-.6.2-1.1.7-1.3.5-.3,1-.5,1.6-.7.2,0,.6,0,1.1,0,.5,0,1.1,0,1.6-.1.6,0,1.1,0,1.6-.1.5,0,.8,0,1.1,0,.8,0,1.2-.5,1.2-1.2v-48.6c0-.1,0-.3,0-.6,0-.3,0-.6,0-.9,0-.3,0-.7-.1-1,0-.3,0-.6-.1-.7,0,0,0-.2,0-.4,0-.2-.2-.3-.4-.4-.1,0-.3,0-.6,0-.3,0-.6,0-.9,0s-.6,0-.9,0-.5,0-.6,0h-2.4c-.7,0-1.4,0-2.2,0-.8,0-1.6,0-2.3.2-.8,0-1.5.1-2.1.2-.6.1-1.1.2-1.5.4-.7.3-1.4.9-2.1,1.8-.7.9-1.4,1.8-2.1,2.8-.7,1-1.3,1.8-2,2.6-.6.7-1.2,1.1-1.8,1.1-.9,0-1.3-.5-1.3-1.4v-.3c.5-1.5.9-3.1,1.4-4.6s.9-3.1,1.3-4.6c0-.4.2-1,.3-1.8.1-.8.3-1.6.5-2.5.2-.8.5-1.6.9-2.2s.9-1,1.5-1,.9.2,1.2.6c.3.4.5.8.8,1.4.2.5.5,1,.8,1.5.3.5.7.8,1.2.9,1.7.2,3,.3,4.1.3,1.1,0,2.2,0,3.3,0h2.6c4.3,0,8.5,0,12.6-.2s8.3-.2,12.6-.2h3.2c.8,0,1.3-.3,1.5-.9,0-.1.2-.3.3-.7.1-.3.2-.7.3-1,.1-.4.2-.7.3-1.1.1-.4.2-.6.3-.7.2-.2.4-.4.7-.4s.5,0,.7,0c.4,0,.6,0,.8,0,.1,0,.3.2.5.4.6,1,1.1,2,1.5,3.1.4,1.1.7,2.3,1.1,3.5.3,1.2.7,2.3,1,3.5.3,1.2.7,2.2,1.2,3.2,0,.2.2.4.4.7.2.3.3.5.5.8s.3.5.5.7c.1.2.2.4.3.4,0,.2.1.5.3,1,.1.5.2.9.2,1.3s0,.4-.2.4c-.8,0-1.7-.3-2.6-1-.9-.6-1.9-1.4-2.8-2.2-.9-.8-1.8-1.7-2.7-2.5-.9-.8-1.7-1.5-2.4-2-.5-.3-1.1-.5-2-.8-.9-.2-1.8-.4-2.8-.6-1-.2-1.9-.3-2.9-.4-.9,0-1.6-.1-2.1-.1h-1.2c-.4,0-.8,0-1.2,0-.4,0-.8.1-1.2.2s-.7.3-.9.6c-.2.2-.4.6-.4,1v32.5c0,1.9,0,3.7-.2,5.4-.1,1.7-.2,3.3-.2,4.7s0,1.2,0,2c0,.9,0,1.8,0,2.7,0,.9,0,1.8.2,2.6,0,.8.1,1.4.2,1.9h7.4c.6,0,1.2.2,1.8.7.6.4.9,1,.9,1.7s0,.5-.1.8c0,.3-.2.5-.5.5h-29.2c-.5,0-.7,0-.8-.2,0-.1,0-.4,0-.8Z" fill="#fff" stroke-width="0"/>
      <path d="M445.8,721.2c0-.8.3-1.4.9-1.6s1.3-.4,2.1-.4c.2,0,.6,0,1.1,0,.5,0,1,0,1.5,0,.5,0,1.1,0,1.6,0,.5,0,1,0,1.4,0,.7,0,1.1-.5,1.1-1.6v-50.1c0-.3-.2-.6-.6-1-.4-.4-.8-.6-1.1-.6h-5.6c-.3,0-.7-.2-1.2-.6-.5-.4-.7-.7-.7-1.1s.2-.9.6-1.1c.4-.2.8-.3,1.2-.3,1.7,0,3.6,0,5.7,0,2.1,0,4.3,0,6.5,0,2.3,0,4.6,0,6.8,0,2.3,0,4.5,0,6.7,0s.8.2,1,.5c.2.3.3.6.3.8,0,.4-.2.7-.6.9-.4.2-1,.3-1.6.4-.7,0-1.4.1-2.1.2-.8,0-1.5,0-2.2.1-.7,0-1.3.2-1.9.4-.5.2-.9.5-1.1.8v23c0,.5.4.8,1.2.8h24.6c.4,0,.8-.2,1.2-.5.5-.3.7-.7.7-1.1v-21.8c0-.7-.3-1.2-1-1.3-1.1-.2-2.1-.3-3.2-.3-1.1,0-2.1-.2-3.2-.5-.5-.2-.9-.5-1.2-.8s-.6-.5-.6-.7c0-.5.2-.8.7-.9.5-.2.8-.2.9-.2s.5,0,.9,0c.4,0,.9,0,1.3.2.5,0,.9.1,1.3.2.4,0,.7,0,1,0h7.7c.7,0,1.6,0,2.6,0,1,0,2,0,3-.2,1,0,2-.1,3-.2,1,0,1.9,0,2.7,0s1,.2,1.1.6c.1.4.2.9.2,1.6s0,.5-.3.8c-.2.3-.4.5-.6.5h-4.9c-1,0-1.4.3-1.4.9v50.2c0,.5.2.8.6,1.1.4.3.8.5,1.3.5h5.5c.2,0,.4.1.6.4.2.2.2.5.2.7,0,.7-.3,1.2-.7,1.6-.4.4-.8.7-1.4.7-1,0-2.1,0-3.3,0-1.2,0-2.4,0-3.7,0s-2.2,0-3.2,0c-1,0-1.8,0-2.4,0-1.2,0-2.2,0-3.1,0-.9,0-1.8,0-2.7.2-.9,0-1.7.1-2.6.2-.9,0-1.9,0-2.9,0s-.9-.1-1.3-.3c-.4-.2-.6-.6-.6-1.2s.1-.5.4-.9c.3-.4.5-.6.7-.6h5.9c.6,0,1.2-.2,1.7-.7.6-.5.9-1.1.9-1.9v-19.1c0-.9-.1-1.7-.4-2.4-.3-.7-.6-1-1.1-1.1h-24.7c-1,0-1.5.5-1.5,1.5v21.9c.3.7.6,1.1.9,1.3.3.2.8.4,1.4.5.4,0,.8.1,1.2.2.4,0,.9,0,1.5,0h2.7c1,0,1.5.5,1.5,1.5s-.5,1.2-1.5,1.2-1.1,0-2.1,0c-1,0-2.1,0-3.4,0s-2.5,0-3.9,0c-1.3,0-2.6,0-3.7,0-1.9,0-3.5,0-4.8,0-1.3,0-2.5,0-3.7.2-.7,0-1.2,0-1.8,0-.5,0-1.1,0-1.8,0s-1.2,0-1.6-.2c-.4-.1-.6-.6-.6-1.4Z" fill="#fff" stroke-width="0"/>
      <path d="M566,721.1c0-1.2.1-2.7.4-4.5.2-1.8.4-3.5.4-5.2s0-.7-.2-1.1c-.1-.4-.3-.7-.7-.7s-.4.2-.6.7c-.2.4-.5.9-.9,1.3-1.3,1.5-2.6,2.9-4,4.2s-2.7,2.4-4.2,3.4c-1.5,1-3.1,1.8-4.8,2.3-1.7.6-3.7.8-5.8.8-4.2,0-7.9-1.4-11-4.2-1-.8-1.9-1.7-2.5-2.7-.6-1-1.1-2-1.5-3.1-.4-1.1-.6-2.2-.7-3.4-.1-1.2-.2-2.4-.2-3.7v-36.6c0-.6,0-1.2-.2-1.7-.1-.5-.5-.8-1.1-.8h-9.7c-.4,0-.7-.2-.9-.5-.2-.3-.4-.7-.4-1s0-.5.2-.9c.1-.5.4-.7.8-.7h20.5c.7,0,1,.3,1,.9v38c0,1.6.2,3.1.7,4.6.5,1.5,1.1,2.9,2,4.1.9,1.2,2,2.2,3.4,2.9,1.3.7,2.9,1.1,4.7,1.1s3.8-.2,5.3-.6c1.5-.4,3-1,4.6-1.9,1.7-1,3.3-2.5,4.6-4.5.5-.7.9-1.4,1.2-2,.3-.6.5-1.2.7-1.9.2-.6.3-1.3.3-2,0-.7.1-1.5.2-2.4l.6-30.7c0-.1,0-.4,0-.8,0-.4,0-.8-.2-1.3-.1-.5-.2-.9-.4-1.2-.2-.4-.5-.5-.8-.5s-.7,0-1.5.1c-.7,0-1.6.1-2.5.1s-1.8,0-2.6,0c-.8,0-1.4,0-1.9,0-.9,0-1.6,0-2.2-.1-.6,0-.9-.4-.9-.9s0-.6,0-.9c0-.3.2-.6.5-.8.4-.2.8-.4,1.3-.5.5,0,.9-.1,1.4-.1s1.2,0,2,.1c.7,0,1.5.2,2.3.2.8,0,1.5.2,2.2.2.7,0,1.4.1,1.9.1h11.9c.3,0,.4.1.4.4l-1.9,48.8v1.4c0,.1,0,.3,0,.5.2.7.5,1.3.9,1.9.4.6,1.1.9,2,.9s1.1,0,1.7-.1c.6,0,1.2-.2,1.8-.3.6-.1,1.1-.2,1.6-.3.5,0,.9-.1,1.3-.1s.7.2.8.5c.1.3.2.6.2.9,0,.5-.2.9-.5,1.1-.4.3-.7.5-1.1.7-.9.3-1.7.4-2.5.4s-.9,0-1.3,0c-.4,0-.9,0-1.6.2-1.3.2-2.8.4-4.3.8-1.5.4-2.9.7-4.2,1.1-.8.3-1.6.6-2.3.8-.7.2-1.5.3-2.4.3s-.8-.2-1-.6c-.2-.4-.3-.8-.3-1.2Z" fill="#fff" stroke-width="0"/>
      <path d="M596.5,713.2c0-1.1.2-2.2.7-3.3.5-1.1.9-2.1,1.2-3,0-.2,0-.6.2-1.1.1-.5.2-1.1.3-1.6.1-.6.2-1.1.4-1.6s.2-.9.3-1.1c.1-.5.5-.7,1-.7s.8.4.9,1.2v1.4c0,.7,0,1.1,0,1.4,0,.2.1.5.2.7.3,1.8.8,3.6,1.5,5.3.7,1.7,1.6,3.2,2.7,4.6,1.1,1.3,2.4,2.4,4,3.3,1.5.8,3.4,1.2,5.4,1.2s3-.2,4.4-.7c1.4-.5,2.7-1.2,3.7-2,1.1-.9,2-2,2.6-3.3.6-1.3,1-2.7,1-4.3,0-2.5-.4-4.5-1.3-6.1-.9-1.6-2-2.9-3.5-4-1.4-1.1-3.1-1.9-4.9-2.6-1.8-.7-3.7-1.4-5.6-2s-3.8-1.4-5.6-2.1c-1.8-.8-3.5-1.8-4.9-3.1-1.4-1.3-2.6-2.8-3.5-4.7-.9-1.9-1.3-4.3-1.3-7.2s0-1.8.3-2.6c.2-.8.4-1.5.7-2.1.3-.6.6-1.2.9-1.7s.6-1,.8-1.4c.6-1,1.4-2,2.3-2.9.9-1,2-1.8,3.3-2.6,1.2-.7,2.6-1.4,4.2-1.8,1.5-.5,3.2-.7,5.1-.7s3.4.3,5.3,1c1.8.6,3.4,1.5,4.9,2.6.5.5.9.9,1.4,1.4.5.5.9.7,1.4.7s1.1-.2,1.5-.6c.4-.4.8-.9,1.2-1.6,0,0,.2,0,.2-.1,0,0,.1,0,.2,0,.1,0,.2.1.3.3s.1.4.2.7c0,.3.1.5.1.8,0,.3,0,.5,0,.6s0,.5-.2,1.2c-.1.7-.2,1.5-.4,2.5-.2,1-.4,2-.6,3.1-.2,1.1-.5,2.1-.7,3s-.5,1.7-.8,2.3c-.3.6-.5.9-.8.9s-.1,0-.2,0c-.1,0-.2-.2-.2-.2-.3-.6-.6-1.1-.7-1.5-.1-.4-.2-.8-.3-1.2,0-.4-.1-.7-.1-1.1,0-.4,0-.8-.2-1.3,0-.6-.3-1.2-.6-1.8-.5-1.4-1-2.5-1.6-3.3-.6-.9-1.4-1.8-2.4-2.7-.6-.7-1.2-1.3-1.8-1.7s-1.2-.7-1.8-.9c-.7-.2-1.4-.3-2.2-.3-.8,0-1.8,0-3,0s-2.2.3-3.2.8c-1,.5-1.8,1.2-2.5,2.1-.7.9-1.2,1.9-1.6,3-.4,1.1-.6,2.3-.6,3.5,0,2,.4,3.7,1.3,5,.9,1.3,2.1,2.4,3.5,3.3,1.5.9,3.1,1.7,5,2.3,1.9.6,3.7,1.3,5.7,2s3.8,1.5,5.7,2.4,3.5,2,5,3.5c1.5,1.4,2.6,3.2,3.5,5.3.9,2.1,1.3,4.7,1.3,7.9s-.5,4.2-1.5,6.3c-1,2.1-2.4,4-4.1,5.8-.7.8-1.7,1.6-2.9,2.2-1.2.7-2.4,1.2-3.8,1.7-1.4.5-2.9.8-4.4,1.1-1.5.3-3.1.4-4.6.4s-3.2-.3-5.2-1c-2-.6-3.9-1.4-5.6-2.4-1.8-.9-3.3-1.9-4.5-3s-1.8-2.1-1.8-3Z" fill="#fff" stroke-width="0"/>
      <path d="M665.4,691.6l10.6-.4c1.7-.1,2.9-.5,3.8-1.2.9-.7,1.5-1.5,2-2.5.4-1,.8-2,1-3.2.2-1.2.6-2.3,1-3.4.1-.5.3-.7.6-.7.6,0,.9.1.9.4v2.5c0,1.7,0,3.4-.2,5.4-.1,1.9-.2,3.6-.2,4.9s.1,2.7.3,4.2c.2,1.5.3,3,.3,4.6s0,.5,0,1c0,.5-.1.9-.2,1.4,0,.5-.2.9-.3,1.3s-.3.6-.6.6c-.5,0-.7-.2-.8-.7-.1-.4-.2-.8-.3-1.2,0-.5-.2-1.1-.4-1.8-.2-.7-.4-1.4-.7-2.1-.2-.7-.5-1.4-.7-2-.2-.6-.4-1-.4-1.2-.4-.7-1.1-1.3-2.2-1.8-1.1-.4-2.3-.8-3.6-1-1.3-.2-2.7-.4-4.2-.4-1.4,0-2.7,0-3.7,0h-1.9c-.7,0-1.1.1-1.2.4s-.2.7-.2,1.3v21.8c0,1.2.4,2,1.2,2.4h18.8c.8,0,1.7,0,2.6,0,.9,0,1.5-.1,1.8-.3.6-.2,1.1-.5,1.6-1.1s.8-1.1,1.1-1.6c.1-.2.4-.6.7-1.3.4-.7.7-1.4,1.1-2.1.4-.8.8-1.5,1.1-2.1.4-.7.6-1.1.8-1.3.2-.5.7-.7,1.2-.7s.6.1.8.4v9.2c0,.4,0,.7,0,1,0,.3-.1.7-.2,1.1-.2.6-.4,1-.6,1.1s-.7.4-1.4.5c-4.2,0-8.1,0-11.9,0-3.7,0-7.5,0-11.4,0-3.8,0-7.9,0-12.1,0-4.3,0-9,0-14.3,0s-1.1-.4-1.1-1.1.2-.8.7-1.1c.5-.2.9-.4,1.2-.5.2,0,.7,0,1.2,0,.6,0,1.2,0,1.8,0,.7,0,1.3,0,1.9,0,.6,0,1.2,0,1.6,0,1,0,1.5-.8,1.5-2.4v-45.7c0-.7,0-1.6-.2-2.6-.1-1-.4-1.9-.8-2.6l-.4-.3-8.7-.9c-.8,0-1.2-.4-1.2-1.2s0-.5.1-.8.4-.5.8-.5h10.2c4,0,7.9,0,11.7,0s7.4,0,10.6,0h8.8c.7,0,1.4,0,2.1,0,.7,0,1.4,0,2.1,0s1.3,0,1.8,0c.5,0,.9,0,1.2,0,.3,0,.5.2.7.4.2.2.3.5.3.9,0,.4.1.7.1,1.1,0,.4,0,.6,0,.8v10.1c0,.4-.1.6-.4.6-.5,0-.8-.3-1-.9-.2-.6-.6-1.3-1-2.1-.4-.9-.8-1.8-1.4-2.7-.5-.9-.9-1.6-1.2-2.1-.4-.7-.9-1.2-1.7-1.6-.8-.4-1.6-.7-2.6-.9-1-.2-1.9-.4-2.9-.5-1-.1-1.9-.3-2.6-.4-.2,0-.9,0-1.9,0-1,0-2.2,0-3.5,0-1.3,0-2.6,0-3.8,0-1.3,0-2.2,0-2.9,0s-1.4.2-1.6.7c-.2.5-.3,1.2-.3,2.2v22.1c0,.4.1.7.4,1,.3.3.6.5,1.1.5Z" fill="#fff" stroke-width="0"/>
      <path d="M716.8,721.6c0-.6.2-1.1.7-1.3.5-.3,1-.5,1.6-.7.2,0,.6,0,1.1,0,.5,0,1.1,0,1.6-.1.6,0,1.1,0,1.6-.1.5,0,.8,0,1.1,0,.8,0,1.2-.5,1.2-1.2v-48.6c0-.1,0-.3,0-.6,0-.3,0-.6,0-.9,0-.3,0-.7-.1-1,0-.3,0-.6-.1-.7,0,0,0-.2,0-.4,0-.2-.2-.3-.4-.4-.1,0-.3,0-.6,0-.3,0-.6,0-.9,0s-.6,0-.9,0-.5,0-.6,0h-2.4c-.7,0-1.4,0-2.2,0-.8,0-1.6,0-2.3.2-.8,0-1.5.1-2.1.2-.6.1-1.1.2-1.5.4-.7.3-1.4.9-2.1,1.8-.7.9-1.4,1.8-2.1,2.8-.7,1-1.3,1.8-2,2.6-.6.7-1.2,1.1-1.8,1.1-.9,0-1.3-.5-1.3-1.4v-.3c.5-1.5.9-3.1,1.4-4.6s.9-3.1,1.3-4.6c0-.4.2-1,.3-1.8.1-.8.3-1.6.5-2.5.2-.8.5-1.6.9-2.2s.9-1,1.5-1,.9.2,1.2.6c.3.4.5.8.8,1.4.2.5.5,1,.8,1.5.3.5.7.8,1.2.9,1.7.2,3,.3,4.1.3,1.1,0,2.2,0,3.3,0h2.6c4.3,0,8.5,0,12.6-.2s8.3-.2,12.6-.2h3.2c.8,0,1.3-.3,1.5-.9,0-.1.2-.3.3-.7.1-.3.2-.7.3-1,.1-.4.2-.7.3-1.1.1-.4.2-.6.3-.7.2-.2.4-.4.7-.4s.5,0,.7,0c.4,0,.6,0,.8,0,.1,0,.3.2.5.4.6,1,1.1,2,1.5,3.1.4,1.1.7,2.3,1.1,3.5.3,1.2.7,2.3,1,3.5.3,1.2.7,2.2,1.2,3.2,0,.2.2.4.4.7.2.3.3.5.5.8s.3.5.5.7c.1.2.2.4.3.4,0,.2.1.5.3,1,.1.5.2.9.2,1.3s0,.4-.2.4c-.8,0-1.7-.3-2.6-1-.9-.6-1.9-1.4-2.8-2.2-.9-.8-1.8-1.7-2.7-2.5-.9-.8-1.7-1.5-2.4-2-.5-.3-1.1-.5-2-.8-.9-.2-1.8-.4-2.8-.6-1-.2-1.9-.3-2.9-.4-.9,0-1.6-.1-2.1-.1h-1.2c-.4,0-.8,0-1.2,0-.4,0-.8.1-1.2.2s-.7.3-.9.6c-.2.2-.4.6-.4,1v32.5c0,1.9,0,3.7-.2,5.4-.1,1.7-.2,3.3-.2,4.7s0,1.2,0,2c0,.9,0,1.8,0,2.7,0,.9,0,1.8.2,2.6,0,.8.1,1.4.2,1.9h7.4c.6,0,1.2.2,1.8.7.6.4.9,1,.9,1.7s0,.5-.1.8c0,.3-.2.5-.5.5h-29.2c-.5,0-.7,0-.8-.2,0-.1,0-.4,0-.8Z" fill="#fff" stroke-width="0"/>
    </g>
  </g>
</svg>