<?xml version="1.0" encoding="UTF-8"?>
<svg id="Layer_1" data-name="Layer 1" xmlns="http://www.w3.org/2000/svg" version="1.1" viewBox="0 0 250 200">
  <g>
    <path id="path14" d="M19.5,174.2c7,0,10.5-4.1,10.5-12.4s-3.5-10.5-10.5-10.5h-7v22.9h7ZM6.3,179.6v-33.8h13.2c11.2,0,16.8,5.3,16.8,16s-5.6,17.8-16.8,17.8H6.3" fill="#3d3b3b" stroke-width="0"/>
    <path id="path16" d="M46.1,165h10.6v-.2c0-3.4-1.7-5.2-5.2-5.2s-5.1,1.8-5.4,5.3ZM51.5,154.8c7.5,0,11.3,3.8,11.3,11.5s0,2-.2,3.1h-16.5c0,3.5,2.6,5.2,7.7,5.2s5-.2,7.5-.7v5c-2.2.5-4.9.7-8,.7-9,0-13.5-4.2-13.5-12.7s3.9-12.1,11.7-12.1" fill="#3d3b3b" stroke-width="0"/>
    <path id="path18" d="M73.8,173.8c1.4.5,3.1.7,5,.7,3.8,0,5.7-2.7,5.7-8s-1.6-6.6-4.9-6.6-4,.4-5.8,1.3v12.6ZM67.5,145.8h6.3v10.9c1.9-1.3,4-1.9,6.3-1.9,7.1,0,10.6,4,10.6,11.9s-4,12.9-12.1,12.9-7.1-.3-11-1v-32.8" fill="#3d3b3b" stroke-width="0"/>
    <path id="path20" d="M105,168.7c-3,0-4.5,1-4.5,3.1s1.3,3.3,3.8,3.3,4-.6,5.8-1.9v-4c-1.6-.3-3.3-.5-5.1-.5h0ZM94.2,171.9c0-4.9,3.6-7.4,10.8-7.4s3.4.2,5.1.5v-1.9c0-2.2-1.6-3.3-4.8-3.3s-5.7.4-9,1.2v-5c3.3-.8,6.3-1.2,9-1.2,7.4,0,11.1,2.7,11.1,8.2v16.7h-3.6l-2.2-2.2c-2.2,1.5-4.5,2.2-7.1,2.2-6.1,0-9.1-2.6-9.1-7.7" fill="#3d3b3b" stroke-width="0"/>
    <path id="path22" d="M121.9,150.7h4.6l.9,4h6.2v5h-5.6v11.4c0,2.3,1,3.5,3,3.5h2.6v5h-5.6c-4.2,0-6.2-2.2-6.2-6.7v-22.2" fill="#3d3b3b" stroke-width="0"/>
    <path id="path24" d="M137.6,150.7h4.6l.9,4h6.2v5h-5.6v11.4c0,2.3,1,3.5,3,3.5h2.6v5h-5.6c-4.2,0-6.2-2.2-6.2-6.7v-22.2" fill="#3d3b3b" stroke-width="0"/>
    <path id="path26" d="M154.3,179.6v-33.8h6.3l17.9,24.6v-24.6h6v33.8h-6.3l-17.9-25.2v25.2h-6" fill="#3d3b3b" stroke-width="0"/>
    <path id="path28" d="M188,154.8h6.6l6.3,17.9,6.1-17.9h6.5l-10.3,25.6c-1.8,4.5-4.8,7.7-8.8,9.6l-3-4.3c2.8-1.2,4.8-3.2,6.1-5.9l-9.5-25" fill="#3d3b3b" stroke-width="0"/>
    <path id="path30" d="M216.2,150.7h4.6l.9,4h6.2v5h-5.6v11.4c0,2.3,1,3.5,3,3.5h2.6v5h-5.6c-4.2,0-6.2-2.2-6.2-6.7v-22.2" fill="#3d3b3b" stroke-width="0"/>
    <path id="path32" d="M231.9,150.7h4.6l.9,4h6.2v5h-5.6v11.4c0,2.3,1,3.5,3,3.5h2.6v5h-5.6c-4.2,0-6.2-2.2-6.2-6.7v-22.2" fill="#3d3b3b" stroke-width="0"/>
  </g>
  <g>
    <path id="path34" d="M200,19.7h-57.2c8.8,4.7,15.7,10.7,20.1,17.7h2.5c9,0,16,7,16,15.7v44.6c0,.6-.1,1.2-.2,1.8l14.3,13.2c.4.4.9.6,1.4.6s.7-.1,1-.3c.9-.4,1.3-1.4,1-2.3l-3-13.9h2.6c9.6,0,16.9-6.7,16.9-15.6v-45.7c.1-8.6-6.9-15.6-15.5-15.6" fill="#80cc28" stroke-width="0"/>
    <path id="path36" d="M165.8,41.9h-.3c1.8,4.1,2.8,8.5,2.8,13,0,25.5-30.8,45.4-70.2,45.4s-3.2,0-4.8-.1v25.3l16.7-16.7h55.7c6.1,0,11.1-5,11.1-11.1v-44.6c0-6.1-5-11.1-11.1-11.1" fill="#51ade5" stroke-width="0"/>
    <path id="path38" d="M98.1,14.1c-36.3,0-65.7,18.3-65.7,40.9s11.9,26.9,29.8,34.2v29.7l23.7-23.7c3.9.5,8,.7,12.2.7,36.3,0,65.7-18.3,65.7-40.9S134.4,14.1,98.1,14.1" fill="#da1259" stroke-width="0"/>
  </g>
</svg>