<?xml version="1.0" encoding="UTF-8"?>
<svg id="Layer_1" data-name="Layer 1" xmlns="http://www.w3.org/2000/svg" version="1.1" viewBox="0 0 250 250">
  <g>
    <path d="M27.9,214c0,2.5-.9,4.4-2.8,5.9-1.8,1.4-4,2.1-6.6,2.1s-4.9-.7-6.6-2c-1.8-1.4-2.7-3.4-2.7-6v-33.8h-4.2v33.8c0,3.8,1.4,6.9,4.1,9.1,2.5,2,5.7,3.1,9.4,3.1s7.1-1,9.4-3c2.8-2.3,4.2-5.4,4.2-9.2v-33.8h-4.2v33.8Z" fill="#231f20" stroke="#231f20" stroke-miterlimit="10" stroke-width=".8"/>
    <path d="M46.4,198.4c-2.8,0-5,.6-6.5,1.8v-1.5h-4.2v27.1h4.2v-16.3c0-2.2.6-3.9,1.7-5.1,1.1-1.2,2.6-1.8,4.8-1.8,4.4,0,6.4,2.3,6.4,7.2v16h4.2v-16.3c0-3.4-.9-6.2-2.7-8.1-1.8-2-4.5-3-7.9-3Z" fill="#231f20" stroke="#231f20" stroke-miterlimit="10" stroke-width=".8"/>
    <path d="M84.7,201.8c-2.6-2.3-5.7-3.5-9.3-3.5s-7.2,1.4-9.9,4.1c-2.7,2.7-4,6-4,9.9s1.4,7.2,4.1,9.9c2.6,2.7,6,4,9.9,4s6.7-1.2,9.3-3.5v1.6c0,2.9-.8,5.2-2.4,6.8-1.5,1.6-3.8,2.4-6.7,2.4s-4.1-.4-5.7-1.1c-1.9-.9-3-2.1-3.4-3.9v-.7h-4.4l.3,1.1c1.5,5.8,5.9,8.8,13.2,8.8s7.2-1.2,9.6-3.7c2.4-2.4,3.7-5.7,3.7-9.6v-25.7h-4.2v3.2ZM75.4,222c-2.7,0-4.9-.9-6.9-2.9-1.9-1.9-2.9-4.2-2.9-6.9s.9-5,2.9-6.9c1.9-1.9,4.2-2.8,6.9-2.8s4.9.9,6.9,2.9c1.9,1.9,2.9,4.2,2.9,6.9s-.9,5-2.9,6.9c-1.9,1.9-4.2,2.8-6.9,2.8Z" fill="#231f20" stroke="#231f20" stroke-miterlimit="10" stroke-width=".8"/>
    <polygon points="107.6 225.7 111.7 225.7 111.7 202.9 128.3 202.9 128.3 198.7 111.7 198.7 111.7 184.4 128.3 184.4 128.3 180.2 107.6 180.2 107.6 225.7" fill="#231f20" stroke="#231f20" stroke-miterlimit="10" stroke-width=".8"/>
    <path d="M136.5,190.1h-.2c-2.4.4-2.7,2-2.7,2.9,0,.8.3,1.5.9,2h0c.6.6,1.3.8,1.9.8,1.8,0,2.9-1,2.9-2.9v-.2c-.6-2.3-2.1-2.7-2.9-2.7Z" fill="#231f20" stroke="#231f20" stroke-miterlimit="10" stroke-width=".8"/>
    <rect x="134.4" y="198.7" width="4.2" height="27.1" fill="#231f20" stroke="#231f20" stroke-miterlimit="10" stroke-width=".8"/>
    <path d="M165.8,198.3c-3.9,0-7.2,1.4-9.9,4.1-2.7,2.7-4.1,6-4.1,9.9s1.4,7.2,4.1,9.9c2.6,2.7,6,4,9.9,4s7.2-1.4,9.9-4.1c2.7-2.7,4-6,4-9.9s-1.4-7.2-4.1-9.9c-2.7-2.7-6-4.1-9.9-4.1ZM165.8,222c-2.7,0-4.9-.9-6.9-2.9-1.9-1.9-2.9-4.2-2.9-6.9s1-4.9,2.9-6.9c1.9-2,4.2-2.9,6.8-2.9s5,.9,6.9,2.9c1.9,1.9,2.8,4.2,2.8,6.9s-.9,5-2.9,6.9-4.2,2.8-6.9,2.8Z" fill="#231f20" stroke="#231f20" stroke-miterlimit="10" stroke-width=".8"/>
    <path d="M197.9,211.8c-.5-.4-1.2-.8-2.2-1.2-.9-.4-2.1-.9-3.5-1.4-1.5-.5-2.6-1-3.2-1.5-.7-.6-1-1.3-1-2.2,0-1.4.4-3,3.6-3s3.5.6,4.7,1.8l.6.6,3.1-2.7-.6-.6c-2.1-2.1-4.7-3.2-7.8-3.2s-4.1.7-5.6,2.1c-1.5,1.4-2.2,3.1-2.2,5s.8,4,2.3,5.3c1,.8,2.5,1.6,4.7,2.4,1.1.4,2,.8,2.8,1.1.7.3,1.2.5,1.6.7,1.1.9,1.7,1.9,1.7,3,0,1.9-.6,4.1-4.9,4.1s-2.8-.3-3.7-1c-.9-.6-1.6-1.5-2.3-2.7l-.4-.8-3.6,2.2.4.7c2.1,3.8,5.3,5.8,9.6,5.8s4.7-.8,6.4-2.3c1.8-1.5,2.7-3.5,2.7-6s-1-4.6-3-6.2Z" fill="#231f20" stroke="#231f20" stroke-miterlimit="10" stroke-width=".8"/>
    <path d="M216.7,198.3c-3.9,0-7.2,1.4-9.9,4.1-2.7,2.7-4.1,6-4.1,9.9s1.4,7.2,4.1,9.9c2.6,2.7,6,4,9.9,4s7.2-1.4,9.9-4.1c2.7-2.7,4-6,4-9.9s-1.4-7.2-4.1-9.9c-2.7-2.7-6-4.1-9.9-4.1ZM216.7,222c-2.7,0-4.9-.9-6.9-2.9-1.9-1.9-2.9-4.2-2.9-6.9s1-4.9,2.9-6.9c1.9-2,4.2-2.9,6.8-2.9s5,.9,6.9,2.9c1.9,1.9,2.8,4.2,2.8,6.9s-.9,5-2.9,6.9c-1.9,1.9-4.2,2.8-6.9,2.8Z" fill="#231f20" stroke="#231f20" stroke-miterlimit="10" stroke-width=".8"/>
    <path d="M240.8,182.6l1.6.2,2.7.6v-4.1l-.5-.2c-.7-.3-1.3-.5-1.9-.5-.3,0-.8-.1-1.8-.1-4.4,0-6.7,2.3-6.7,6.7v13.6h-3.4v4.2h3.4v22.8h4.2v-22.8h6v-4.2h-6v-12.8c0-2.8,1.3-3.2,2.5-3.2Z" fill="#231f20" stroke="#231f20" stroke-miterlimit="10" stroke-width=".8"/>
  </g>
  <path d="M190.3,35.8c.1-6.1-8.9-8.7-13.1-9.1-2.6-2.2-7.6-6.3-12.2-5.6-3.5-4.5-5.8-5.2-9.8-6.1-7.4-1.7-11.8-3.3-20,.2-1.7-2.8-7-3.1-11.5-2.8-2.2.2-4.5.4-6.5.8-7.8,0-20,.7-21.7,5.8-6.5-3.4-13.5,3-19.6,6.3-1.4.9-4,2-6.4,3.6-2.5,1.6-4.9,3.6-6.1,6.3-3.9,1.2-6.6,2.2-9,3.8-1.5,1.3-3,2.7-4.6,4.2-1.6,1.5-3.2,3.2-4.8,4.9-5.2,4.3-10.5,14-7.6,20.2-4.9,6.8-3.6,21.3,4.9,21.5,4.3,7.2,10,8,16.1,9.1,7.5,1.3,13.8,6.2,21.9,3.3-.1,3.4,4.2,5.5,6.5,6.9,2.4,1.4,4.7,2.8,7.1,4.2,2.5,1.1,4.9,2,7.4,2.9,6.5,2.2,16,3,19.4-1.6,3,4.6,13.1,3.1,19.7-.3,2-.7,6.2-3.3,5.1-5.7,7.5,5.6,18.7-5.5,24.5-9.2,2.9-1.8,7.3-4.9,11.2-8.9,1.3-1.3,2.5-2.7,3.6-4.2,3.4-5.6,7.4-18.9-.3-19.5,4.7-2.1-.2-10.1-4.7-13.4-1.5-1.3-3.1-2.3-4.8-3.1-1.7-.8-3.4-1.5-5.2-2.1-6.7-8.8-11.1-5-16.6-7.6-1.8-.9-3.7-1.7-5.5-2.5-3.6-2-12.1-7.2-19.8-2.7-.4-3.8-21.7-5.5-26.2,1.9-4.9-3.4-23.2,2.6-22.2,9-7-.2-11.6,5.7-16.2,11.4-1.3,2.3-3,6.3,1,7.8-4.3,1.1-3.2,4.3-2.4,6.2.8,2,2.1,3.8,4.2,5.3,4.1,3.6,8.5,6.5,13.3,8.8,6.9,3.3,14.5,5.3,22.2,6,8.8.8,17.8,0,26.3-2.5,3.8-1.1,7.5-2.4,11-4.1,2.1-1,4.1-2.1,6.1-3.2,1.6-.9,3.2-1.9,4.8-2.9,3.8-2.1,4.9-5.5,4.4-8.9-.7-2.4,0-1.2-1.2-3.2-1.3-2-.4-7.6-8.3-5,3.2-6.8-11.9-17.3-20.3-12.2-1-5.1-25.2-3.4-24.1,5.3-4.7-.4-10.7,4.9-4.3,9.4-8.3,8.1,37.3,16.2,24.6,1.1,3.4,6.8-19.5,4.1-16.1-8,5-4.1,10.6-4.7,16.2-3.4,5.9,1.3,11.8,4.6,17.1,7.7,3.4,2.6,4.3,7.7,1.7,11.1-4.8,4.8-14.6,10.1-20.3,6.1-10.8,6.7-29.2,4.2-29.3-1.2-8.1,5-23.5-7-14.6-14.7-6-2.3-.6-8.1,2.8-9.8,11.6-6.3,24.3-10.7,37.1-11.3,9.7-.5,19.7-3.3,29,1.5,3.1,1.2,5.8,1.8,8.7,3.2,3,1.4,4.4.5,7.2,2.1,1.8,1,9.2,4.3,9.8,7.5,7.5-.9,7.6,15.7,5.3,23.9-.4,1.5-1.4,3.2-2.8,4.9-1.4,1.7-.7,3.5-2.7,5.3-4,3.5-8.4-1.6-16.4,9.6-3.8,1.2-6.8,1.7-9.3,1.9-2.4.2-4.3,0-5.8-.4-1.3-.5-3.8-1.3-5.5-1.3-9.2.7-17.9,7.3-26.4,5.1-1.7-.5-3.4-1.3-5.1-2.5-5-2.7-9.2-4.6-14.1-7.5-5.5,1.5-8.2-1.4-13-2.8-8.1,1.5-10.8-3.4-13.4-4.3-3.6,1.2-2.3-.8-5.1-1.3-11.1-1.9-15.6-15.2-10.7-27.3.3-.7.6-1.4.9-2.1.9-1.7,2.6-2.6,3.4-3.8,1.9-1.8,2.1-4.9,7.7-3.9-1.7-3.4,1.6-6.9,4.5-9.2,7.5-5.8,9.6-1.3,11.1-2.3-3.2-5.1,18.3-18.3,26.2-12.8,5.5-9.2,26.5-4.4,39.7-3.1,2.7-.2,5.6-.4,8.6-.5,5,5.1,16.8,5.2,19.3,7,1.2,3.4,4.7,2.8,7,4.3,18.6,12.2,35.4,29.8,32,52.3,0,1.7-5.1,1.7-7.5,3.1-1.9,1.5-3.6,2.9-5.3,4.2-6.8,5.1-13.1,7.6-19.9,11.8-12.9,7.9-11.2,6.5-16.8,16.8-15.3,28.3-13.2,104.4-13.2,104.4h4.7c.7-21.3-3.9-72.4,18.7-95.7,13.4-13.9,11.8-1.3,26.4-7,14.6-5.6,10.6-18.3,11.7-24.7.3-1.7,2.7-3.8,6.3-6.4,2.1-2,5.1-4.3,7.1-6.9,2.5-6.9-4.9-9.7-4.8-13.2,1.5-7,3.5-11.5-4.3-18.9-1.1-8.7-15.2-15.6-18.3-17.6Z" fill="#231f20" stroke-width="0"/>
</svg>